<?xml version="1.0" encoding="utf-8"?>
<!-- Generator: Adobe Illustrator 15.0.0, SVG Export Plug-In . SVG Version: 6.00 Build 0)  -->
<!DOCTYPE svg PUBLIC "-//W3C//DTD SVG 1.1//EN" "http://www.w3.org/Graphics/SVG/1.1/DTD/svg11.dtd">
<svg version="1.1" id="Layer_1" xmlns="http://www.w3.org/2000/svg" xmlns:xlink="http://www.w3.org/1999/xlink" x="0px" y="0px"
	 width="113.39px" height="113.39px" viewBox="0 0 113.39 113.39" enable-background="new 0 0 113.39 113.39" xml:space="preserve">
<g>
	<g>
		<defs>
			<rect id="SVGID_1_" x="17.893" y="14.402" width="77.199" height="85.04"/>
		</defs>
		<clipPath id="SVGID_2_">
			<use xlink:href="#SVGID_1_"  overflow="visible"/>
		</clipPath>
		<path clip-path="url(#SVGID_2_)" fill="none" stroke="#EC2127" stroke-width="1.9" stroke-miterlimit="10" d="M56.867,25.75
			l10.324,5.561c1.045,0.566,2.35,0.204,2.951-0.82c0.988-1.686,2.229-4.414,2.229-7.492c0-3.079-1.24-5.808-2.229-7.493
			c-0.602-1.025-1.906-1.388-2.951-0.82l-10.301,5.588l-10.594-5.616c-1.041-0.551-2.332-0.188-2.932,0.828
			c-0.99,1.683-2.24,4.421-2.24,7.513c0,3.091,1.252,5.828,2.24,7.512c0.6,1.015,1.891,1.379,2.932,0.828l0,0L56.867,25.75z
			 M46.297,31.339"/>
		
			<circle clip-path="url(#SVGID_2_)" fill="none" stroke="#EC2127" stroke-width="1.9" stroke-miterlimit="10" cx="56.748" cy="34.283" r="2.904"/>
		
			<circle clip-path="url(#SVGID_2_)" fill="none" stroke="#EC2127" stroke-width="1.9" stroke-miterlimit="10" cx="56.748" cy="72.705" r="2.904"/>
		
			<circle clip-path="url(#SVGID_2_)" fill="none" stroke="#EC2127" stroke-width="1.9" stroke-miterlimit="10" cx="56.748" cy="63.1" r="2.904"/>
		
			<circle clip-path="url(#SVGID_2_)" fill="none" stroke="#EC2127" stroke-width="1.9" stroke-miterlimit="10" cx="56.748" cy="53.494" r="2.904"/>
		
			<circle clip-path="url(#SVGID_2_)" fill="none" stroke="#EC2127" stroke-width="1.9" stroke-miterlimit="10" cx="56.748" cy="43.888" r="2.904"/>
	</g>
	<path fill="none" stroke="#EC2127" stroke-width="2.126" stroke-miterlimit="10" d="M92.131,27.914l-11.256-3.981
		c-0.643-0.225-1.346-0.182-1.953,0.123c-0.607,0.303-1.064,0.842-1.268,1.491l-19.16,61.421c-0.244,0.783-0.969,1.316-1.787,1.316
		c-0.82,0-1.545-0.533-1.789-1.316L35.746,25.516c-0.201-0.645-0.652-1.178-1.254-1.485c-0.6-0.305-1.299-0.355-1.938-0.137
		L20.66,27.935c-1.654,0.563-2.768,2.118-2.768,3.865v63.505c0,2.255,1.826,4.082,4.082,4.082H90.77
		c2.256,0,4.082-1.827,4.082-4.082V31.762C94.852,30.031,93.762,28.491,92.131,27.914L92.131,27.914z M86.07,86.604
		c0,0.879-0.711,1.591-1.592,1.591H69.35c-0.877,0-1.592-0.712-1.592-1.591v-3.265c0-0.878,0.715-1.592,1.592-1.592h15.129
		c0.881,0,1.592,0.714,1.592,1.592V86.604z M86.07,86.604"/>
</g>
</svg>
