<svg xmlns="http://www.w3.org/2000/svg" viewBox="0 0 428.979 428.979" width="512" height="512"><path d="M360.388 40.716h-42.365V7.5a7.502 7.502 0 0 0-3.215-6.156C313.534.457 310.524 0 310.524 0H118.46s-3.01.457-4.285 1.344A7.5 7.5 0 0 0 110.96 7.5v33.216H68.591a7.5 7.5 0 0 0-7.5 7.5v373.263a7.5 7.5 0 0 0 7.5 7.5h291.797a7.5 7.5 0 0 0 7.5-7.5V48.216a7.5 7.5 0 0 0-7.5-7.5zm-145.896-5.647L160.304 15h108.375l-54.187 20.069zm88.532-16.793v41.926l-53.625 32.771-24.271-45.846 77.896-28.851zm-177.064 0l77.897 28.851-24.271 45.847-53.626-32.772V18.276zM76.091 155.302h66.733v18.789H76.091v-18.789zm0 33.789h74.233a7.5 7.5 0 0 0 7.5-7.5v-33.789a7.5 7.5 0 0 0-7.5-7.5H76.091V55.716h34.869v8.692a7.499 7.499 0 0 0 3.589 6.399l64.021 39.124a7.491 7.491 0 0 0 5.894.834 7.5 7.5 0 0 0 4.645-3.724l17.882-33.778v340.716h-130.9V189.091zm145.901 224.888V73.264l17.882 33.778a7.501 7.501 0 0 0 10.539 2.89l64.021-39.124a7.5 7.5 0 0 0 3.589-6.399v-8.692h34.865v84.585h-74.233a7.5 7.5 0 0 0-7.5 7.5v33.789a7.5 7.5 0 0 0 7.5 7.5h74.233V413.98H221.992zm130.896-239.888h-66.733v-18.789h66.733v18.789z" fill="#ed1d24"/></svg>