<svg xmlns="http://www.w3.org/2000/svg" viewBox="0 0 467.689 467.689" width="512" height="512"><g fill="#ed1d24"><path d="M153.721 319.489c20.321-13.714 33.71-36.951 33.71-63.257 0-42.052-34.211-76.263-76.263-76.263s-76.263 34.211-76.263 76.263c0 26.306 13.389 49.543 33.71 63.257-21.713 6.195-37.663 26.201-37.663 49.875v90.825a7.5 7.5 0 0 0 7.5 7.5h145.432a7.5 7.5 0 0 0 7.5-7.5v-90.825c0-23.674-15.949-43.68-37.663-49.875zm-25.26 23.38l-9.109-10.374h18.218l-9.109 10.374zM99.39 332.495l18.076 20.585-16.921 12.622-8.158-33.207h7.003zm55.272 3.269c.954.432 1.887.9 2.796 1.408l-2.669 27.345-15.332-11.437 15.205-17.316zM49.905 256.232c0-33.781 27.482-61.263 61.263-61.263s61.263 27.482 61.263 61.263-27.482 61.263-61.263 61.263-61.263-27.482-61.263-61.263zm-3.953 113.132c0-18.367 13.502-33.637 31.101-36.415l11.625 47.318a7.5 7.5 0 0 0 11.767 4.223l20.516-15.304v83.503H82.984v-74.346a7.5 7.5 0 0 0-15 0v74.346H45.952v-83.325zm130.432 83.325h-40.422v-83.503l20.516 15.304a7.497 7.497 0 0 0 7.517.847 7.5 7.5 0 0 0 4.432-6.131l2.795-28.63a36.637 36.637 0 0 1 5.163 18.788v83.325z"/><path d="M152.717 390.424c-1.193-2.828-4.026-4.704-7.109-4.625-3.274.084-6.157 2.347-7.039 5.495-.86 3.067.403 6.477 3.058 8.241 2.626 1.744 6.179 1.644 8.69-.261 2.678-2.034 3.719-5.737 2.4-8.85-.19-.45.191.45 0 0zm-44.23-148.151c-1.169-2.767-3.904-4.63-6.925-4.63-3.01 0-5.769 1.862-6.925 4.63-1.232 2.951-.384 6.499 2.054 8.571 2.48 2.107 6.132 2.369 8.88.627 3.03-1.919 4.318-5.876 2.916-9.198-.19-.449.19.451 0 0zm35.201 5.741c1.193 2.824 4.03 4.704 7.112 4.625 3.327-.085 6.281-2.446 7.086-5.677.718-2.883-.382-6.001-2.747-7.797-2.598-1.972-6.297-2.012-8.932-.09-2.78 2.027-3.833 5.759-2.519 8.939.189.449-.19-.46 0 0zm193.454-72.85a7.493 7.493 0 0 0 7.636.249 7.5 7.5 0 0 0 3.893-6.575v-17.443h7.631c12.847 0 23.299-10.452 23.299-23.298V49.688c0-12.847-10.452-23.299-23.299-23.299h-77.698V23.3c0-12.848-10.452-23.3-23.3-23.3h-137.64c-12.848 0-23.3 10.453-23.3 23.3v78.4c0 12.848 10.453 23.3 23.3 23.3h7.63v17.45a7.5 7.5 0 0 0 11.53 6.325L174.13 125h21.231v3.097c0 12.847 10.452 23.298 23.298 23.298h81.171l37.312 23.769zM171.944 110a7.504 7.504 0 0 0-4.031 1.175l-27.619 17.602V117.5a7.5 7.5 0 0 0-7.5-7.5h-15.13c-4.577 0-8.3-3.723-8.3-8.3V23.3c0-4.577 3.724-8.3 8.3-8.3h137.64c4.576 0 8.3 3.724 8.3 8.3v3.089H218.66c-10.157 0-18.811 6.536-21.992 15.621h-57.233a7.5 7.5 0 0 0 0 15h55.927v12.54h-55.927a7.5 7.5 0 0 0 0 15h55.927V110h-23.418zm38.417 18.097V49.688c0-4.576 3.723-8.299 8.298-8.299h137.642c4.576 0 8.299 3.723 8.299 8.299v78.408c0 4.576-3.723 8.298-8.299 8.298H341.17a7.5 7.5 0 0 0-7.5 7.5v11.273l-27.625-17.599a7.5 7.5 0 0 0-4.029-1.174H218.66c-4.576.001-8.299-3.722-8.299-8.297z"/><path d="M240.438 83.4h94.085c4.143 0 7.5-3.358 7.5-7.5s-3.357-7.5-7.5-7.5h-94.085a7.5 7.5 0 0 0 0 15zm101.585 20.038a7.5 7.5 0 0 0-7.5-7.5h-94.085c-4.143 0-7.5 3.358-7.5 7.5s3.357 7.5 7.5 7.5h94.085a7.5 7.5 0 0 0 7.5-7.5zm57.051 216.051c20.321-13.714 33.71-36.951 33.71-63.257 0-42.052-34.211-76.263-76.263-76.263s-76.264 34.211-76.264 76.263c0 26.306 13.389 49.543 33.71 63.257-21.714 6.195-37.663 26.201-37.663 49.875v90.825a7.5 7.5 0 0 0 7.5 7.5h145.433a7.5 7.5 0 0 0 7.5-7.5v-90.825c0-23.674-15.949-43.68-37.663-49.875zm-15.814 13.006c-5.698 8.977-15.711 14.751-26.741 14.751s-21.042-5.774-26.741-14.751h53.482zm-88.002-76.263c0-33.781 27.482-61.263 61.264-61.263 33.78 0 61.263 27.482 61.263 61.263s-27.482 61.263-61.263 61.263c-33.782 0-61.264-27.482-61.264-61.263zm-3.953 113.132c0-15.385 9.475-28.593 22.894-34.11 7.547 16.208 24.001 26.992 42.321 26.992 18.32 0 34.774-10.785 42.321-26.993 13.42 5.517 22.897 18.726 22.897 34.111v26.622h-26.272v-17.642c0-4.142-3.357-7.5-7.5-7.5s-7.5 3.358-7.5 7.5v74.346h-89.16v-83.326zm104.16 83.325v-41.704h26.272v41.704h-26.272z"/><path d="M359.197 248.014c1.323 3.125 4.65 5.056 8.029 4.546 2.966-.448 5.427-2.672 6.169-5.575.779-3.047-.506-6.331-3.108-8.081-2.95-1.984-6.946-1.524-9.47.93-2.093 2.156-2.772 5.383-1.62 8.18.191.449-.189-.46 0 0zm-34.769-4.34c-.18-.962-.589-1.877-1.11-2.7-3.784-5.537-12.651-3.586-13.655 3.068-.913 6.044 5.784 10.658 11.109 7.62 2.775-1.584 4.296-4.842 3.656-7.988-.09-.48.099.49 0 0zm33.568 27.164a5.999 5.999 0 0 0-8.484 0c-2.005 2.004-4.67 3.108-7.504 3.108s-5.499-1.104-7.504-3.108a5.999 5.999 0 0 0-8.484 0 5.998 5.998 0 0 0 0 8.485c4.407 4.408 10.198 6.612 15.988 6.612s11.581-2.204 15.988-6.612a5.998 5.998 0 0 0 0-8.485z"/></g></svg>