<svg xmlns="http://www.w3.org/2000/svg" viewBox="0 0 512 512"><path d="M400.243 226.53c60.453 0 109.696-47.971 111.757-107.923-59.089-9.947-105.716-56.573-115.665-115.66-48.467 1.666-89.107 34.162-102.897 78.497L400.243 226.53z" fill="#f8e99b"/><path d="M396.335 2.945V221.22l3.908 5.31c60.453 0 109.696-47.971 111.757-107.923-59.089-9.948-105.716-56.574-115.665-115.662z" fill="#f5dc60"/><path d="M400.243 379.564c42.259 0 76.517-34.258 76.517-76.517s-34.258-76.517-76.517-76.517c0-84.518-68.516-153.034-153.034-153.034S94.175 142.012 94.175 226.53c-42.259 0-76.517 34.258-76.517 76.517s34.258 76.517 76.517 76.517h306.068z" fill="#3862cc"/><path d="M400.243 226.53c0-84.518-68.516-153.034-153.034-153.034v306.068h153.034c42.259 0 76.517-34.258 76.517-76.517s-34.259-76.517-76.517-76.517z" fill="#2a4998"/><path d="M176.578 509.055c-35.7 0-64.745-29.045-64.745-64.745h35.316c0 16.227 13.202 29.43 29.43 29.43s29.43-13.202 29.43-29.43-13.202-29.43-29.43-29.43H0v-35.316h176.578c35.7 0 64.745 29.045 64.745 64.745s-29.045 64.746-64.745 64.746zm70.631-141.262H0v-35.316h247.209c16.227 0 29.43-13.202 29.43-29.43s-13.202-29.43-29.43-29.43-29.43 13.202-29.43 29.43h-35.316c0-35.7 29.045-64.745 64.745-64.745s64.745 29.045 64.745 64.745-29.044 64.746-64.744 64.746z" fill="#bedbfd"/></svg>