<svg xmlns="http://www.w3.org/2000/svg" viewBox="0 0 512 512"><circle cx="256" cy="256" r="256" fill="#88c5cc"/><path d="M221.916 149.528a167.498 167.498 0 0 1 12.5 9.12c18.992-25.08 49.084-41.288 82.956-41.288 57.44 0 104.012 46.568 104.012 104.008 0 2.672-.132 5.316-.336 7.936a86.99 86.99 0 0 1 13.852 14.228c.084-.44.156-.88.24-1.32.284-1.624.536-3.26.752-4.908.024-.176.048-.356.076-.536.196-1.496.364-3 .504-4.512.056-.592.084-1.192.132-1.784.088-1.164.18-2.328.244-3.5.084-1.856.14-3.724.14-5.6s-.056-3.744-.14-5.6a126.34 126.34 0 0 0-.244-3.5c-.048-.592-.084-1.192-.132-1.784-.14-1.512-.308-3.016-.504-4.512-.028-.18-.052-.36-.076-.536-.224-1.644-.468-3.28-.752-4.908a118.934 118.934 0 0 0-19.748-47.664 120.228 120.228 0 0 0-29.516-29.516 118.921 118.921 0 0 0-52.536-20.492c-.208-.028-.412-.052-.612-.08a126.351 126.351 0 0 0-4.436-.496c-.632-.06-1.268-.096-1.908-.144-1.132-.088-2.252-.176-3.396-.232-1.864-.084-3.74-.144-5.616-.144s-3.752.056-5.612.144c-1.14.056-2.272.144-3.412.232-.628.048-1.252.088-1.884.144-1.496.14-2.98.304-4.46.5-.196.024-.396.048-.588.076a118.864 118.864 0 0 0-52.544 20.492c-10.332 7.232-19.376 16.12-26.956 26.176z" fill="#ffeab3"/><path d="M248.872 123.348h-29.52v24.52c.82.52 1.636 1.052 2.448 1.588a120.485 120.485 0 0 1 27.072-26.108z" fill="#fff8e6"/><path d="M221.8 149.456c.04.024.076.048.112.072 7.584-10.06 16.62-18.944 26.952-26.18a120.616 120.616 0 0 0-27.064 26.108z" fill="#ffd464"/><path d="M415.392 152.864c.008 0 .008.004.008.008v-29.524h-29.524a120.297 120.297 0 0 1 29.516 29.516zm20.568 53.108c.192 1.5.368 3 .504 4.512.056.592.088 1.192.136 1.784.084 1.168.18 2.328.24 3.5.088 1.856.14 3.724.14 5.6s-.052 3.748-.14 5.6c-.06 1.172-.152 2.336-.24 3.5-.048.592-.084 1.192-.136 1.784a118.729 118.729 0 0 1-.576 5.048c-.224 1.648-.476 3.28-.756 4.908 0 .008-.004.016-.004.024L456 221.364l-20.872-20.868c0 .008.004.016.004.024.28 1.624.54 3.26.756 4.908.028.184.048.364.072.544z" fill="#fff8e6"/><path d="M435.132 242.22zm0-41.692c.28 1.624.536 3.26.756 4.908a116.014 116.014 0 0 0-.756-4.908zm1.468 29.948c.084-1.168.18-2.328.24-3.5-.06 1.172-.148 2.336-.24 3.5zm.24-14.704c-.06-1.172-.152-2.336-.24-3.5.092 1.16.18 2.324.24 3.5zm-.376-5.288zm-.504 26.292z" fill="#ffd464"/><path d="M302.004 102.78a125.6 125.6 0 0 1 4.46-.5c.62-.06 1.252-.096 1.884-.144 1.136-.084 2.268-.176 3.412-.232 1.86-.088 3.736-.144 5.612-.144s3.752.052 5.616.144c1.136.052 2.26.148 3.396.232.632.048 1.268.084 1.908.144 1.484.136 2.96.308 4.436.496.204.028.416.052.612.08 1.636.22 3.252.472 4.872.752.016 0 .024.004.032.004l-20.872-20.868-20.868 20.868h.02c1.616-.284 3.252-.54 4.892-.756.192-.028.392-.052.588-.076z" fill="#fff8e6"/><path d="M311.756 101.908c-1.14.052-2.272.148-3.416.232 1.14-.088 2.276-.18 3.416-.232zm14.628.228c-1.132-.084-2.252-.176-3.396-.232 1.136.056 2.264.144 3.396.232zm-19.92.144zm26.264.496zm5.484.832a113.347 113.347 0 0 0-4.872-.752c1.632.224 3.252.472 4.872.752zm-41.688.004z" fill="#ffd464"/><path d="M293.332 252.988c14.896-25.62 42.412-42.848 73.94-42.848 20.368 0 39.064 7.188 53.768 19.172.2-2.624.332-5.264.332-7.936 0-57.44-46.568-104.008-104.008-104.008-33.88 0-63.968 16.208-82.952 41.288a168.58 168.58 0 0 1 58.92 94.332z" fill="#ffdc80"/><path d="M197.756 221.372zm1.096-15.936l-.072.536.072-.536zm-.58 5.044c-.056.604-.084 1.216-.132 1.82l.132-1.82zm30.612 108.92c.324.08.648.14.968.224.02-.08.04-.152.064-.224h-1.032zm-30.744-88.952c.048.604.084 1.216.132 1.82l-.132-1.82zm-.232-14.684c-.088 1.86-.14 3.728-.14 5.608-.012-1.88.048-3.748.14-5.608zm.872 21.012l.072.536-.072-.536zM.156 264.796C.056 261.876 0 258.944 0 256c0 2.944.064 5.876.156 8.796zM0 256zm.616 17.736c-.164-2.352-.272-4.72-.376-7.088.1 2.368.22 4.732.376 7.088zm.804 9.136zm-.504-48.304c.032-.376.04-.752.076-1.128-.04.372-.056.752-.076 1.128z" fill="#f5f5f5"/><path d="M56.548 416.4c8.4-3.212 17.476-5.048 27.008-5.048.36 0 .704.048 1.064.056C95.828 356.936 143.6 316 200.844 316c6.296 0 12.476.504 18.508 1.46v-27.58a118.926 118.926 0 0 1-19.744-47.656v.012l-20.868-20.868 20.868-20.868v.012a118.827 118.827 0 0 1 19.752-47.664c-.004 0-.008.004-.008.004v-4.996c-25.66-16.28-55.996-25.732-88.532-25.732-12.504 0-24.672 1.44-36.392 4.08 15.736 20.348 25.14 45.928 25.14 73.752 0 3.636-.188 7.228-.508 10.78 18.376 10.848 30.728 30.612 30.728 53.396 0 34.368-28.024 62.136-62.6 62.136H9.848a257.42 257.42 0 0 1-8.372-42.904c8.164 76.776 50.252 143.416 111 184.624h.22c-21.176-14.34-40.14-31.708-56.148-51.588z" opacity=".4" fill="#b3d8dc"/><path d="M234.572 307.536a54.81 54.81 0 0 1 9.36-12.524c-18.884-18.828-30.568-44.868-30.568-73.64 0-23.56 7.844-45.284 21.052-62.724a167.498 167.498 0 0 0-12.5-9.12c-.844 1.116-1.752 2.18-2.556 3.328a118.997 118.997 0 0 0-19.752 47.664 117.397 117.397 0 0 0-.828 5.452 119.441 119.441 0 0 0-.508 4.508c-.056.604-.088 1.212-.132 1.82-.084 1.152-.18 2.304-.244 3.468-.084 1.86-.14 3.728-.14 5.608s.06 3.752.14 5.608c.064 1.164.148 2.316.244 3.468.044.608.084 1.216.132 1.82a119.441 119.441 0 0 0 .58 5.044c.228 1.648.472 3.288.756 4.916a118.91 118.91 0 0 0 19.744 47.66c4.476 6.38 9.612 12.256 15.22 17.644z" fill="#ffe399"/><path d="M234.572 307.536a54.81 54.81 0 0 1 9.36-12.524c-18.884-18.828-30.568-44.868-30.568-73.64 0-23.56 7.844-45.284 21.052-62.724a167.498 167.498 0 0 0-12.5-9.12c-.844 1.116-1.752 2.18-2.556 3.328a118.997 118.997 0 0 0-19.752 47.664 117.397 117.397 0 0 0-.828 5.452 119.441 119.441 0 0 0-.508 4.508c-.056.604-.088 1.212-.132 1.82-.084 1.152-.18 2.304-.244 3.468-.084 1.86-.14 3.728-.14 5.608s.06 3.752.14 5.608c.064 1.164.148 2.316.244 3.468.044.608.084 1.216.132 1.82a119.441 119.441 0 0 0 .58 5.044c.228 1.648.472 3.288.756 4.916a118.91 118.91 0 0 0 19.744 47.66c4.476 6.38 9.612 12.256 15.22 17.644z" fill="#fce9c1"/><g fill="#ffd464"><path d="M219.36 152.856c.8-1.144 1.6-2.288 2.44-3.4a159.658 159.658 0 0 0-2.448-1.588v4.996l.008-.008z"/><path d="M221.8 149.456c-.84 1.112-1.64 2.252-2.44 3.4.8-1.148 1.712-2.212 2.556-3.328l-.116-.072z"/></g><path d="M221.8 149.456c-.84 1.112-1.64 2.252-2.44 3.4.8-1.148 1.712-2.212 2.556-3.328l-.116-.072z" fill="#f5f5f5"/><path d="M198.78 236.776a119.441 119.441 0 0 1-.508-4.508c-.056-.604-.084-1.216-.132-1.82-.084-1.156-.184-2.304-.244-3.468-.084-1.86-.14-3.728-.14-5.608s.056-3.748.14-5.608c.06-1.164.156-2.312.244-3.468.048-.604.084-1.216.132-1.82a119.441 119.441 0 0 1 .58-5.044c.22-1.652.472-3.288.756-4.916v-.012l-20.868 20.868 20.868 20.868v-.012a116.39 116.39 0 0 1-.756-4.916l-.072-.536z" fill="#ffd464"/><path d="M198.78 236.776a119.441 119.441 0 0 1-.508-4.508c-.056-.604-.084-1.216-.132-1.82-.084-1.156-.184-2.304-.244-3.468-.084-1.86-.14-3.728-.14-5.608s.056-3.748.14-5.608c.06-1.164.156-2.312.244-3.468.048-.604.084-1.216.132-1.82a119.441 119.441 0 0 1 .58-5.044c.22-1.652.472-3.288.756-4.916v-.012l-20.868 20.868 20.868 20.868v-.012a116.39 116.39 0 0 1-.756-4.916l-.072-.536z" fill="#fde0a3"/><path d="M197.908 226.98c.056 1.164.148 2.312.24 3.468-.092-1.152-.188-2.304-.24-3.468z" fill="#ffd464"/><path d="M197.908 226.98c.056 1.164.148 2.312.24 3.468-.092-1.152-.188-2.304-.24-3.468z" fill="#f5f5f5"/><path d="M198.14 212.3c-.084 1.156-.184 2.304-.244 3.468.064-1.164.16-2.316.244-3.468z" fill="#ffd464"/><path d="M198.14 212.3c-.084 1.156-.184 2.304-.244 3.468.064-1.164.16-2.316.244-3.468z" fill="#f5f5f5"/><path d="M199.608 200.52a116.39 116.39 0 0 0-.756 4.916c.228-1.648.472-3.288.756-4.916z" fill="#ffd464"/><path d="M199.608 200.52a116.39 116.39 0 0 0-.756 4.916c.228-1.648.472-3.288.756-4.916z" fill="#f5f5f5"/><g fill="#ffd464"><path d="M234.536 307.608a120.774 120.774 0 0 1-15.184-17.732v27.584c3.228.508 6.4 1.168 9.532 1.936h1.032c1.1-4.14 2.632-8.1 4.62-11.788z"/><path d="M234.536 307.608a.183.183 0 0 0 .036-.08c-5.6-5.388-10.744-11.256-15.22-17.656a119.743 119.743 0 0 0 15.184 17.736z"/></g><path d="M234.536 307.608a.183.183 0 0 0 .036-.08c-5.6-5.388-10.744-11.256-15.22-17.656a119.743 119.743 0 0 0 15.184 17.736z" fill="#f5f5f5"/><path d="M243.92 295.012c9.884-9.892 23.548-16.008 38.64-16.008.256 0 .508.036.764.036 1.92-9.332 5.372-18.084 10-26.052a168.633 168.633 0 0 0-58.916-94.336c-13.212 17.436-21.056 39.164-21.056 62.724.012 28.768 11.696 54.808 30.568 73.636z" fill="#ffd464"/><path d="M243.92 295.012c9.884-9.892 23.548-16.008 38.64-16.008.256 0 .508.036.764.036 1.92-9.332 5.372-18.084 10-26.052a168.633 168.633 0 0 0-58.916-94.336c-13.212 17.436-21.056 39.164-21.056 62.724.012 28.768 11.696 54.808 30.568 73.636z" fill="#fde0a3"/><path d="M442.528 279.928c3 0 5.972.112 8.916.336-2.608-13.664-8.4-26.168-16.548-36.732a118.983 118.983 0 0 1-14.44 38.48 118.728 118.728 0 0 1 22.072-2.084z" fill="#b2d7dd"/><path d="M332.744 339.968l.584-.072-.584.072z" fill="#f5f5f5"/><path d="M319.848 325.32a86.803 86.803 0 0 1 10.076 14.96c.94-.096 1.892-.188 2.82-.312l.584-.072a145.83 145.83 0 0 0 4.916-.76c.724-.128 1.436-.248 2.156-.388a120.294 120.294 0 0 1 15.368-20.712 103.733 103.733 0 0 1-35.92 7.284z" fill="#ffe399"/><path d="M319.848 325.32a86.803 86.803 0 0 1 10.076 14.96c.94-.096 1.892-.188 2.82-.312l.584-.072a145.83 145.83 0 0 0 4.916-.76c.724-.128 1.436-.248 2.156-.388a120.294 120.294 0 0 1 15.368-20.712 103.733 103.733 0 0 1-35.92 7.284z" fill="#fde8c1"/><path d="M421.048 229.312c-1.736 22.988-10.928 43.876-25.192 60.264a117.396 117.396 0 0 1 24.596-7.56 118.714 118.714 0 0 0 14.444-38.48 86.778 86.778 0 0 0-13.848-14.224z" fill="#ffe399"/><path d="M421.048 229.312c-1.736 22.988-10.928 43.876-25.192 60.264a117.396 117.396 0 0 1 24.596-7.56 118.714 118.714 0 0 0 14.444-38.48 86.778 86.778 0 0 0-13.848-14.224z" fill="#fce9c0"/><path d="M338.236 339.132a108.3 108.3 0 0 1-5.496.832c-.932.12-1.86.252-2.804.356a89.083 89.083 0 0 1 2.344 4.764l5.956-5.952c.008 0 .008 0 0 0zm-44.904-86.144c2.74 12.096 4.232 24.68 4.232 37.62 0 5.104-.26 10.148-.712 15.14 8.764 5.172 16.532 11.828 22.996 19.576 12.66-.296 24.752-2.852 35.912-7.284 11.188-12.092 24.82-21.844 40.096-28.452 14.252-16.396 23.456-37.28 25.192-60.268-14.712-11.984-33.408-19.172-53.772-19.172-31.532-.012-59.048 17.216-73.944 42.84z" fill="#ffd464"/><path d="M308.36 340.608c-.632-.048-1.264-.084-1.9-.14.624.056 1.268.096 1.9.14z" fill="#f5f5f5"/><path d="M308.36 340.608c-.632-.048-1.264-.084-1.9-.14.624.056 1.268.096 1.9.14zm19.92-.14c-.628.056-1.26.092-1.892.14.632-.044 1.264-.084 1.892-.14z" fill="#f5f5f5"/><path d="M328.28 340.468c-.628.056-1.26.092-1.892.14.632-.044 1.264-.084 1.892-.14zm-23.408 37.664c6.488-1.812 13.3-2.852 20.372-2.852.352 0 .696.052 1.06.056 1.8-8.752 4.556-17.14 8.128-25.08a83.91 83.91 0 0 0-2.148-5.164L317.372 360l-20.864-20.868a118.883 118.883 0 0 1-47.648-19.744h.008-18.952c-.024.08-.044.152-.064.228 32.288 8.2 59.324 29.752 75.02 58.516z" fill="#f5f5f5"/><path d="M304.872 378.132c6.488-1.812 13.3-2.852 20.372-2.852.352 0 .696.052 1.06.056 1.8-8.752 4.556-17.14 8.128-25.08a83.91 83.91 0 0 0-2.148-5.164L317.372 360l-20.864-20.868a118.883 118.883 0 0 1-47.648-19.744h.008-18.952c-.024.08-.044.152-.064.228 32.288 8.2 59.324 29.752 75.02 58.516z" fill="#d6e9e7"/><path d="M302 339.968l-.58-.072c.188.024.388.04.58.072z" fill="#f5f5f5"/><path d="M302 339.968l-.58-.072c.188.024.388.04.58.072zm20.984.872zm0 0zm-5.612.144zm0 0z" fill="#f5f5f5"/><path d="M301.42 339.9l.58.072c1.48.192 2.964.36 4.46.5.624.056 1.264.092 1.9.14 1.128.088 2.256.18 3.4.236 1.868.084 3.736.144 5.612.144s3.752-.06 5.612-.144c1.14-.056 2.272-.144 3.408-.236.628-.048 1.26-.084 1.892-.14.556-.056 1.092-.124 1.64-.188a87.112 87.112 0 0 0-10.076-14.96c-.824.02-1.644.064-2.472.064-28.676 0-54.632-11.6-73.444-30.372a54.81 54.81 0 0 0-9.36 12.524c4.464 4.288 9.204 8.296 14.288 11.856a119.003 119.003 0 0 0 47.648 19.748c1.624.276 3.264.528 4.912.756z" fill="#ffe399"/><path d="M301.42 339.9l.58.072c1.48.192 2.964.36 4.46.5.624.056 1.264.092 1.9.14 1.128.088 2.256.18 3.4.236 1.868.084 3.736.144 5.612.144s3.752-.06 5.612-.144c1.14-.056 2.272-.144 3.408-.236.628-.048 1.26-.084 1.892-.14.556-.056 1.092-.124 1.64-.188a87.112 87.112 0 0 0-10.076-14.96c-.824.02-1.644.064-2.472.064-28.676 0-54.632-11.6-73.444-30.372a54.81 54.81 0 0 0-9.36 12.524c4.464 4.288 9.204 8.296 14.288 11.856a119.003 119.003 0 0 0 47.648 19.748c1.624.276 3.264.528 4.912.756z" fill="#f5f5f5"/><path d="M301.42 339.9l.58.072c1.48.192 2.964.36 4.46.5.624.056 1.264.092 1.9.14 1.128.088 2.256.18 3.4.236 1.868.084 3.736.144 5.612.144s3.752-.06 5.612-.144c1.14-.056 2.272-.144 3.408-.236.628-.048 1.26-.084 1.892-.14.556-.056 1.092-.124 1.64-.188a87.112 87.112 0 0 0-10.076-14.96c-.824.02-1.644.064-2.472.064-28.676 0-54.632-11.6-73.444-30.372a54.81 54.81 0 0 0-9.36 12.524c4.464 4.288 9.204 8.296 14.288 11.856a119.003 119.003 0 0 0 47.648 19.748c1.624.276 3.264.528 4.912.756z" fill="#faedd7"/><path d="M328.28 340.468c-.628.06-1.26.092-1.892.14-1.132.084-2.264.18-3.412.236-1.864.084-3.732.144-5.612.144s-3.752-.052-5.608-.144c-1.14-.052-2.268-.148-3.404-.236-.628-.048-1.268-.084-1.904-.14a117.612 117.612 0 0 1-4.456-.5l-.584-.072c-1.648-.224-3.28-.476-4.916-.76l20.864 20.868 14.912-14.912a87.511 87.511 0 0 0-2.336-4.764c-.54.052-1.096.088-1.652.14z" fill="#ffd464"/><path d="M328.28 340.468c-.628.06-1.26.092-1.892.14-1.132.084-2.264.18-3.412.236-1.864.084-3.732.144-5.612.144s-3.752-.052-5.608-.144c-1.14-.052-2.268-.148-3.404-.236-.628-.048-1.268-.084-1.904-.14a117.612 117.612 0 0 1-4.456-.5l-.584-.072c-1.648-.224-3.28-.476-4.916-.76l20.864 20.868 14.912-14.912a87.511 87.511 0 0 0-2.336-4.764c-.54.052-1.096.088-1.652.14z" fill="#f5f5f5"/><path d="M338.236 339.132a108.3 108.3 0 0 1-5.496.832c-.932.12-1.86.252-2.804.356-.548.056-1.1.092-1.656.144-.628.06-1.26.096-1.892.144-1.132.084-2.264.176-3.412.232-1.864.088-3.732.144-5.612.144s-3.752-.056-5.608-.144c-1.14-.052-2.268-.148-3.404-.232-.628-.048-1.268-.084-1.904-.144a117.612 117.612 0 0 1-4.456-.5c-.192-.028-.388-.052-.584-.076-1.648-.22-3.28-.476-4.916-.756L317.364 360l14.912-14.916 5.96-5.952c.008 0 .008 0 0 0z" fill="#fce7c3"/><path d="M306.46 340.468zm0 0z" fill="#f5f5f5"/><path d="M329.936 340.324c0-.012-.008-.028-.016-.044-.552.064-1.088.132-1.64.188.556-.052 1.112-.088 1.656-.144z" fill="#ffd464"/><path d="M329.936 340.324c0-.012-.008-.028-.016-.044-.552.064-1.088.132-1.64.188.556-.052 1.112-.088 1.656-.144z" fill="#f5f5f5"/><path d="M329.936 340.324c0-.012-.008-.028-.016-.044-.552.064-1.088.132-1.64.188.556-.052 1.112-.088 1.656-.144z" fill="#f5f5f5"/><path d="M311.756 340.84c-1.14-.06-2.268-.144-3.404-.232 1.136.088 2.264.18 3.404.232z" fill="#ffd464"/><path d="M311.756 340.84c-1.14-.06-2.268-.144-3.404-.232 1.136.088 2.264.18 3.404.232z" fill="#f5f5f5"/><path d="M326.392 340.608c-1.132.088-2.26.18-3.408.236 1.14-.056 2.272-.148 3.408-.236zm-29.884-1.476z" fill="#ffd464"/><path d="M296.508 339.132zm0 0z" fill="#f5f5f5"/><path d="M229.916 319.4h18.952c-.004 0-.004-.008-.008-.008a120.48 120.48 0 0 1-14.324-11.78c-1.988 3.684-3.52 7.644-4.62 11.788z" fill="#ffd464"/><path d="M229.916 319.4h18.952c-.004 0-.004-.008-.008-.008a120.48 120.48 0 0 1-14.324-11.78c-1.988 3.684-3.52 7.644-4.62 11.788z" fill="#f5f5f5"/><path d="M234.536 307.608c4.46 4.28 9.248 8.224 14.324 11.78-5.084-3.564-9.824-7.572-14.288-11.86a.164.164 0 0 1-.036.08z" fill="#ffd464"/><path d="M234.536 307.608c4.46 4.28 9.248 8.224 14.324 11.78-5.084-3.564-9.824-7.572-14.288-11.86a.164.164 0 0 1-.036.08z" fill="#f5f5f5"/><path d="M234.536 307.608c4.46 4.28 9.248 8.224 14.324 11.78-5.084-3.564-9.824-7.572-14.288-11.86a.164.164 0 0 1-.036.08z" fill="#f5f5f5"/><path d="M319.848 325.32a88.797 88.797 0 0 0-22.996-19.58c.444-4.992.712-10.032.712-15.14 0-12.932-1.492-25.516-4.232-37.616-4.628 7.968-8.084 16.72-10 26.052-.26 0-.508-.036-.76-.036-15.096 0-28.76 6.116-38.64 16.008 18.812 18.764 44.768 30.372 73.44 30.372.832.004 1.652-.04 2.476-.06z" fill="#ffd464"/><path d="M319.848 325.32a88.797 88.797 0 0 0-22.996-19.58c.444-4.992.712-10.032.712-15.14 0-12.932-1.492-25.516-4.232-37.616-4.628 7.968-8.084 16.72-10 26.052-.26 0-.508-.036-.76-.036-15.096 0-28.76 6.116-38.64 16.008 18.812 18.764 44.768 30.372 73.44 30.372.832.004 1.652-.04 2.476-.06z" fill="#f5f5f5"/><path d="M319.848 325.32a88.797 88.797 0 0 0-22.996-19.58c.444-4.992.712-10.032.712-15.14 0-12.932-1.492-25.516-4.232-37.616-4.628 7.968-8.084 16.72-10 26.052-.26 0-.508-.036-.76-.036-15.096 0-28.76 6.116-38.64 16.008 18.812 18.764 44.768 30.372 73.44 30.372.832.004 1.652-.04 2.476-.06z" fill="#fae8c4"/><path d="M325.312 502.408zm11.488-3.532a260.709 260.709 0 0 1-7.872 2.484c2.652-.78 5.268-1.616 7.872-2.484zm-22.996 6.48zm-11.532 2.396c-1.456.268-2.928.5-4.4.74 1.472-.24 2.944-.472 4.4-.74z" fill="#f5f5f5"/><path d="M508.164 299.936c-16.476-11.076-35.844-18.1-56.72-19.672a87.667 87.667 0 0 1 1.576 16.508c0 2.624-.136 5.22-.364 7.78 13.264 7.836 22.188 22.108 22.188 38.568 0 24.824-20.244 44.88-45.212 44.88h-89.96c-1.532 18.472-8.828 35.3-20.116 48.7a128.03 128.03 0 0 1-.484 10.044c16.776 9.908 28.5 27.26 30.416 47.556 81.948-32.18 143.276-105.38 158.676-194.364z" fill="#b3d8dc"/><path d="M348.28 494.752zm-57.56 14.856c-.56.076-1.116.124-1.672.2.552-.064 1.112-.124 1.672-.2zm28.852-73.648c0 .248-.016.492-.016.74 11.288-13.4 18.584-30.228 20.116-48.7h-30c6.352 14.692 9.9 30.908 9.9 47.96z" fill="#f5f5f5"/><path d="M319.572 435.96c0 .248-.016.492-.016.74 11.288-13.4 18.584-30.228 20.116-48.7h-30c6.352 14.692 9.9 30.908 9.9 47.96z" fill="#cde4e6"/><path d="M420.452 282.02a117.685 117.685 0 0 1-5.056 7.856V319.4h-29.524c.008 0 .008 0 .016-.008-13.416 9.4-28.836 16.112-45.5 19.36a117.781 117.781 0 0 0-5.96 11.516A86.04 86.04 0 0 1 340 380.736c0 2.452-.128 4.876-.328 7.268h89.96c24.968 0 45.212-20.06 45.212-44.88 0-16.452-8.916-30.728-22.188-38.564.228-2.572.364-5.164.364-7.788 0-5.644-.552-11.156-1.576-16.5-2.944-.22-5.916-.336-8.916-.336-7.544-.008-14.92.724-22.076 2.084z" fill="#f5f5f5"/><path d="M452.656 304.564c.228-2.572.364-5.164.364-7.788 0-5.644-.552-11.156-1.576-16.5-2.944-.22-5.916-.336-8.916-.336-7.544 0-14.916.732-22.076 2.084a117.685 117.685 0 0 1-5.056 7.856v29.52h-29.524c.008 0 .008 0 .016-.008-13.416 9.4-28.836 16.112-45.5 19.36-.72.14-1.436.256-2.156.388l-5.952 5.956a92.868 92.868 0 0 1 2.148 5.164A86.067 86.067 0 0 1 340 380.736c0 2.448-.128 4.868-.328 7.264h89.96c24.968 0 45.212-20.056 45.212-44.88 0-16.452-8.924-30.728-22.188-38.556z" fill="#cde4e6"/><path d="M355.756 318.036a120.324 120.324 0 0 0-15.368 20.716c16.664-3.252 32.084-9.968 45.5-19.36a120.61 120.61 0 0 0 29.508-29.516 122.687 122.687 0 0 0 5.056-7.856 116.475 116.475 0 0 0-24.596 7.56c-10.816 12.432-24.528 22.268-40.1 28.456z" fill="#ffe399"/><path d="M355.756 318.036a120.324 120.324 0 0 0-15.368 20.716c16.664-3.252 32.084-9.968 45.5-19.36a120.61 120.61 0 0 0 29.508-29.516 122.687 122.687 0 0 0 5.056-7.856 116.475 116.475 0 0 0-24.596 7.56c-10.816 12.432-24.528 22.268-40.1 28.456z" fill="#f5f5f5"/><path d="M355.756 318.036a120.324 120.324 0 0 0-15.368 20.716c16.664-3.252 32.084-9.968 45.5-19.36a120.61 120.61 0 0 0 29.508-29.516 122.687 122.687 0 0 0 5.056-7.856 116.475 116.475 0 0 0-24.596 7.56c-10.816 12.432-24.528 22.268-40.1 28.456z" fill="#faedd9"/><path d="M385.892 319.392s-.008 0-.008.008H415.4v-29.528a120.35 120.35 0 0 1-29.508 29.52z" fill="#ffd464"/><path d="M385.892 319.392s-.008 0-.008.008H415.4v-29.528a120.35 120.35 0 0 1-29.508 29.52z" fill="#f5f5f5"/><path d="M385.892 319.392s-.008 0-.008.008H415.4v-29.528a120.35 120.35 0 0 1-29.508 29.52z" fill="#fce7c5"/><path d="M385.892 319.392zm0 0z" fill="#f5f5f5"/><path d="M355.756 318.036c15.572-6.188 29.276-16.02 40.092-28.456-15.268 6.608-28.912 16.356-40.092 28.456z" fill="#ffd464"/><path d="M355.756 318.036c15.572-6.188 29.276-16.02 40.092-28.456-15.268 6.608-28.912 16.356-40.092 28.456z" fill="#f5f5f5"/><path d="M367.272 210.136c-31.54 0-59.048 17.228-73.94 42.848 2.74 12.1 4.232 24.68 4.232 37.616 0 5.108-.26 10.148-.712 15.14a88.797 88.797 0 0 1 22.996 19.58c12.66-.296 24.752-2.852 35.912-7.284 15.576-6.188 29.28-16.02 40.096-28.456 14.252-16.392 23.456-37.276 25.192-60.264-14.712-11.988-33.408-19.18-53.776-19.18z" fill="#fde0a3"/><path d="M334.428 350.256a119.035 119.035 0 0 0-8.132 25.08c-.36-.004-.704-.056-1.064-.056-7.068 0-13.88 1.044-20.368 2.852a117.63 117.63 0 0 1 4.8 9.868h30c.2-2.4.328-4.82.328-7.264.008-10.752-1.988-21-5.564-30.48z" fill="#f5f5f5"/><path d="M334.428 350.256a119.035 119.035 0 0 0-8.132 25.08c-.36-.004-.704-.056-1.064-.056-7.068 0-13.88 1.044-20.368 2.852a117.63 117.63 0 0 1 4.8 9.868h30c.2-2.4.328-4.82.328-7.264.008-10.752-1.988-21-5.564-30.48z" fill="#f5f5f5"/><path d="M334.428 350.256a119.035 119.035 0 0 0-8.132 25.08c-.36-.004-.704-.056-1.064-.056-7.068 0-13.88 1.044-20.368 2.852a117.63 117.63 0 0 1 4.8 9.868h30c.2-2.4.328-4.82.328-7.264.008-10.752-1.988-21-5.564-30.48z" fill="#deecec"/><path d="M297.884 508.492c-2.388.392-4.764.788-7.164 1.116a242.13 242.13 0 0 0 7.164-1.116zm31.044-7.136c-1.204.356-2.412.708-3.616 1.044a145.52 145.52 0 0 0 3.616-1.044zm10.508-3.36c-.876.304-1.756.588-2.636.88.88-.292 1.772-.58 2.636-.88zm-31.44 8.612c-1.904.396-3.8.796-5.724 1.148 1.924-.356 3.82-.748 5.724-1.148zm41.488-12.296v-.016c-.4.156-.8.296-1.204.452.404-.156.804-.28 1.204-.436zm-31.064 9.924c-1.54.388-3.076.764-4.616 1.12 1.548-.36 3.088-.74 4.616-1.12z" fill="#f5f5f5"/><path d="M251.692 468H112.696c40.9 27.72 90.176 44 143.304 44 11.208 0 22.228-.78 33.048-2.192-3.1.4-6.22.768-9.356 1.06-13.8-10.448-23.92-25.484-28-42.868z" fill="#b3d8dc"/><path d="M249.684 450.752c0-26.188 13.332-49.224 33.576-62.752h-.688C252.428 388 228 363.636 228 333.5c0-4.808.684-9.436 1.852-13.88-.32-.084-.64-.148-.968-.224h-9.532v-1.936a118.644 118.644 0 0 0-18.508-1.46c-57.244 0-105.016 40.936-116.236 95.408-.36 0-.704-.052-1.056-.052-9.536 0-18.616 1.832-27.016 5.052 16.008 19.876 34.976 37.248 56.152 51.596h138.996a75.92 75.92 0 0 1-2-17.252z" fill="#f5f5f5"/><path d="M249.684 450.752c0-26.188 13.332-49.224 33.576-62.752h-.688C252.428 388 228 363.636 228 333.5c0-4.808.684-9.436 1.852-13.88-.32-.084-.64-.148-.968-.224h-9.532v-1.936a118.644 118.644 0 0 0-18.508-1.46c-57.244 0-105.016 40.936-116.236 95.408-.36 0-.704-.052-1.056-.052-9.536 0-18.616 1.832-27.016 5.052 16.008 19.876 34.976 37.248 56.152 51.596h138.996a75.92 75.92 0 0 1-2-17.252z" fill="#cde4e6"/><path d="M219.352 319.4h9.532a115.184 115.184 0 0 0-9.532-1.936v1.936z" fill="#ffd464"/><path d="M219.352 319.4h9.532a115.184 115.184 0 0 0-9.532-1.936v1.936z" fill="#f5f5f5"/><path d="M248.86 319.392a120.48 120.48 0 0 1-14.324-11.78 120.123 120.123 0 0 1-15.184-17.728V319.4h29.516c-.004 0-.004-.008-.008-.008z" fill="#fce0a3"/><path d="M229.852 319.62c-1.168 4.444-1.852 9.076-1.852 13.88 0 30.136 24.428 54.5 54.572 54.5h.688c6.548-4.376 13.836-7.696 21.612-9.868-15.696-28.764-42.732-50.316-75.02-58.512z" fill="#f5f5f5"/><path d="M229.852 319.62c-1.168 4.444-1.852 9.076-1.852 13.88 0 30.136 24.428 54.5 54.572 54.5h.688c6.548-4.376 13.836-7.696 21.612-9.868-15.696-28.764-42.732-50.316-75.02-58.512z" fill="#f5f5f5"/><path d="M229.852 319.62c-1.168 4.444-1.852 9.076-1.852 13.88 0 30.136 24.428 54.5 54.572 54.5h.688c6.548-4.376 13.836-7.696 21.612-9.868-15.696-28.764-42.732-50.316-75.02-58.512z" fill="#deebec"/><path d="M319.072 446.744c.288-3.312.456-6.664.484-10.044-16.128 19.14-40.364 31.3-67.472 31.3h-.396c4.084 17.384 14.2 32.42 28 42.868 3.136-.288 6.252-.66 9.356-1.06.556-.076 1.112-.124 1.672-.2 2.4-.328 4.776-.732 7.164-1.12 1.46-.248 2.932-.468 4.4-.74 1.916-.352 3.812-.752 5.72-1.14 1.936-.408 3.884-.808 5.808-1.256 1.548-.356 3.084-.744 4.612-1.124a253.274 253.274 0 0 0 10.516-2.872c2.64-.784 5.256-1.612 7.868-2.484.88-.292 1.764-.58 2.64-.88a265.518 265.518 0 0 0 8.844-3.244c.4-.156.796-.304 1.2-.456-1.916-20.288-13.64-37.644-30.416-47.548z" fill="#f5f5f5"/><path d="M319.072 446.744c.288-3.312.456-6.664.484-10.044-16.128 19.14-40.364 31.3-67.472 31.3h-.396c4.084 17.384 14.2 32.42 28 42.868 3.136-.288 6.252-.66 9.356-1.06.556-.076 1.112-.124 1.672-.2 2.4-.328 4.776-.732 7.164-1.12 1.46-.248 2.932-.468 4.4-.74 1.916-.352 3.812-.752 5.72-1.14 1.936-.408 3.884-.808 5.808-1.256 1.548-.356 3.084-.744 4.612-1.124a253.274 253.274 0 0 0 10.516-2.872c2.64-.784 5.256-1.612 7.868-2.484.88-.292 1.764-.58 2.64-.88a265.518 265.518 0 0 0 8.844-3.244c.4-.156.796-.304 1.2-.456-1.916-20.288-13.64-37.644-30.416-47.548z" fill="#cde4e6"/><path d="M309.672 388h-26.416c-20.244 13.528-33.576 36.556-33.576 62.752 0 5.94.708 11.716 2.008 17.252h.396c27.104 0 51.344-12.164 67.468-31.3 0-.248.016-.492.016-.74.004-17.056-3.544-33.272-9.896-47.964z" fill="#f5f5f5"/><path d="M309.672 388h-26.416c-20.244 13.528-33.576 36.556-33.576 62.752 0 5.94.708 11.716 2.008 17.252h.396c27.104 0 51.344-12.164 67.468-31.3 0-.248.016-.492.016-.74.004-17.056-3.544-33.272-9.896-47.964z" fill="#f5f5f5"/><path d="M309.672 388h-26.416c-20.244 13.528-33.576 36.556-33.576 62.752 0 5.94.708 11.716 2.008 17.252h.396c27.104 0 51.344-12.164 67.468-31.3 0-.248.016-.492.016-.74.004-17.056-3.544-33.272-9.896-47.964z" fill="#deebec"/><path d="M304.872 378.132c-7.776 2.168-15.072 5.492-21.612 9.868h26.416a120.194 120.194 0 0 0-4.804-9.868z" fill="#f5f5f5"/><path d="M304.872 378.132c-7.776 2.168-15.072 5.492-21.612 9.868h26.416a120.194 120.194 0 0 0-4.804-9.868z" fill="#f5f5f5"/><path d="M304.872 378.132c-7.776 2.168-15.072 5.492-21.612 9.868h26.416a120.194 120.194 0 0 0-4.804-9.868z" fill="#f5f5f5"/><path d="M304.872 378.132c-7.776 2.168-15.072 5.492-21.612 9.868h26.416a120.194 120.194 0 0 0-4.804-9.868z" fill="#f5f5f5"/><path d="M94.428 126.216c-10.024-12.972-22.592-23.832-37.008-31.74C25.996 133.068 5.572 180.98.984 233.44a254.62 254.62 0 0 1 14.072-64.048c21.652-21.12 48.956-36.328 79.372-43.176z" fill="#b3d8dc"/><path d="M1.476 283.376c-.024-.168-.04-.336-.056-.504.016.168.032.336.056.504zm-.74-8.216c-.036-.476-.08-.948-.108-1.416.028.468.072.94.108 1.416zm-.484-30.52c.148-3.376.388-6.732.664-10.072-.284 3.34-.516 6.692-.664 10.072zm0 22.004c-.032-.616-.072-1.232-.088-1.848.016.62.056 1.232.088 1.848z" fill="#f5f5f5"/><path d="M87.188 326.272c34.58 0 62.6-27.768 62.6-62.136 0-22.784-12.352-42.548-30.728-53.396.32-3.552.508-7.144.508-10.78 0-27.82-9.412-53.4-25.14-73.752-30.416 6.848-57.728 22.06-79.376 43.176A255.11 255.11 0 0 0 .976 233.432c-.036.376-.044.752-.076 1.128-.276 3.34-.516 6.696-.664 10.072C.084 248.408 0 252.192 0 256c0 2.944.056 5.876.156 8.796.024.616.064 1.232.084 1.848.096 2.372.212 4.74.376 7.088.04.476.084.948.116 1.42.196 2.58.416 5.156.688 7.712.016.168.032.336.056.504a256.61 256.61 0 0 0 8.372 42.904h77.34z" fill="#cde4e6"/></svg>