<svg xmlns="http://www.w3.org/2000/svg" viewBox="0 0 512 512"><path d="M203.034 298.931c0 32.302 25.741 58.586 57.379 58.586s57.379-26.285 57.379-58.586c0-24.853-36.715-77.22-57.379-103.797-20.663 26.577-57.379 78.944-57.379 103.797zm66.207 32.103a8.823 8.823 0 0 1-8.828 8.828c-21.905 0-39.724-17.819-39.724-39.724 0-4.879 3.948-8.828 8.828-8.828s8.828 3.948 8.828 8.828c0 12.172 9.897 22.069 22.069 22.069a8.822 8.822 0 0 1 8.827 8.827z" fill="#81a4e3"/><path d="M407.328 234.207a84.72 84.72 0 0 0-4.569.121c-2.431.112-4.793-.741-6.543-2.405a8.839 8.839 0 0 1-2.759-6.409c0-68.431-57.138-123.996-127.371-123.996-55.759 0-104.56 34.694-121.422 86.336-1.284 3.94-5.173 6.474-9.259 6.043a107.85 107.85 0 0 0-10.56-.517c-59.103 0-107.19 48.698-107.19 108.552s48.086 108.552 107.19 108.552c1.569 0 3.121-.034 4.672-.104.621-.043 1.207 0 1.81.104h279.517a8.28 8.28 0 0 1 1.035-.121c46.241-2.405 82.466-41.069 82.466-88.017 0-48.6-39.035-88.139-87.017-88.139zM260.414 375.172c-41.371 0-75.034-34.198-75.034-76.241 0-39.246 61.224-115.048 68.207-123.565 3.362-4.086 10.293-4.086 13.655 0 6.983 8.517 68.207 84.319 68.207 123.565-.001 42.043-33.665 76.241-75.035 76.241z" fill="#73c9c9"/><g fill="#314e55"><path d="M410.836 216.612c-4.655-73.97-67.802-132.75-144.75-132.75-61.052 0-114.793 36.677-135.888 91.974a130.98 130.98 0 0 0-5.353-.112C56.009 175.724 0 232.341 0 301.931c0 69.595 56.009 126.207 124.845 126.207 1.336 0 2.664-.017 3.991-.06.345.043.698.06 1.052.06h282.483a8.37 8.37 0 0 0 1.974-.233C469.233 424.233 512 378.164 512 322.345c0-57.151-45.06-103.858-101.164-105.733zm1.043 193.75c-.354.017-.69.06-1.035.121H131.328c-.603-.104-1.19-.147-1.81-.104-1.552.069-3.104.104-4.672.104-59.103 0-107.19-48.698-107.19-108.552s48.086-108.552 107.19-108.552c3.569 0 7.095.177 10.56.517 4.086.431 7.974-2.103 9.259-6.043 16.862-51.642 65.664-86.336 121.422-86.336 70.233 0 127.371 55.565 127.371 123.996 0 2.423 1 4.741 2.759 6.409 1.75 1.664 4.112 2.517 6.543 2.405a84.72 84.72 0 0 1 4.569-.121c47.983 0 87.018 39.539 87.018 88.138-.002 46.949-36.226 85.613-82.468 88.018z"/><path d="M253.586 175.366c-6.983 8.517-68.207 84.319-68.207 123.565 0 42.043 33.664 76.241 75.034 76.241s75.034-34.198 75.034-76.241c0-39.246-61.224-115.048-68.207-123.565-3.361-4.086-10.292-4.086-13.654 0zm6.828 182.151c-31.638 0-57.379-26.285-57.379-58.586 0-24.853 36.715-77.22 57.379-103.797 20.664 26.578 57.379 78.944 57.379 103.797 0 32.302-25.741 58.586-57.379 58.586z"/><path d="M238.345 300.138c0-4.879-3.948-8.828-8.828-8.828s-8.828 3.948-8.828 8.828c0 21.905 17.819 39.724 39.724 39.724a8.823 8.823 0 0 0 8.828-8.828 8.823 8.823 0 0 0-8.828-8.828c-12.172.001-22.068-9.896-22.068-22.068z"/></g></svg>