<svg xmlns="http://www.w3.org/2000/svg" viewBox="0 0 512 512"><path fill="#CDDFE1" d="M247 1c7.4 1.6 14.8 2.9 22.1 4.9 34.5 9.3 62.1 28.4 81.8 58.3 2.2 3.3 4.2 4.3 8 3.8 39.3-5.2 79.6 22.7 85.3 65.6 1.1 8.5 4.8 12.2 11.2 16.4 34.4 22.8 51.8 55.4 49.1 96.5-2.7 41.6-24 72.2-61.5 91-9.3 4.6-19.2 7.3-29.5 8.9-8.4 1.3-14.8-3.3-16.2-11.7-1.4-7.8 3.2-14.3 11.5-15.8 32.4-5.9 54.2-24.3 64.4-55.6 10.6-32.5-2.1-68.7-30.2-88.3-1.7-1.2-3-2.5-5.4-.2-5 4.8-11.3 5.1-16.9 1.5-5.5-3.5-7.7-8.9-5.8-15.5 5.5-19.4 2.1-36.6-12.5-51-17.7-17.4-43.4-19.3-63.9-4.8-5.2 3.7-10.4 5.3-16.2 1.8-5.3-3.2-7.9-8-7.3-14.3.5-5.6 4.5-8.6 8.7-11.5 1.1-.7 2.1-1.5 3.5-2.5-25.8-35.5-60.4-51.7-103.7-48.6-33.1 2.4-60.9 16-82 42-10.7 13.2-17 28.4-20.3 45-.9 4.4 1.9 3.6 4.3 3.7 30 .9 55.7 11.9 77.1 32.8 8.4 8.2 5.1 20.8-6.1 24-5.9 1.7-10.3-.9-14.3-4.8-10.4-10-22.5-17-36.3-21-49.6-14.4-102.4 20.7-108 71.9-4.9 44.6 21.8 82.8 65.3 93.7 10.2 2.5 14.6 10.5 11 19.5-2.8 6.9-8.8 9.8-16.7 8.1-45.9-9.7-82.1-50.9-87.6-97.6C3.2 190.3 40 140.7 88.4 125.8c2.4-.7 3.7-1.6 4.1-4.6C99.7 55.1 154.6 8.9 216 2c.8-.1 1.7.1 2-1h29z"/><path fill="#09C" d="M254 513c-2.6-2.7-3.1-5.9-3-9.5.2-9.6.1-19.3.1-29.8-7.4 4.2-14.3 8.2-21.2 12.1-2.2 1.2-4.3 2.5-6.5 3.7-4.4 2.4-7.8 2-9.5-1.4-2.2-4.4.3-6.8 3.8-8.8 8.9-5.1 17.9-10.3 27.4-15.8-8.6-5-16.7-9.7-24.8-14.4-1.2-.7-2.3-1.3-3.5-2-3.3-2-5-4.6-2.9-8.3 2-3.6 5.3-3.8 8.6-1.9l22.5 12.9c1.7 1 3.5 1.9 6 3.2v-27.8c0-1.7-.1-3.3 0-5 .2-3.6 1.8-6.1 5.7-6.2 4.1-.1 6.1 2.4 6.1 6.3.1 8.2 0 16.3 0 24.5v7.9c4.1-1.3 7.2-3.7 10.6-5.6 5.9-3.3 11.8-6.8 17.8-10.1 3.4-1.9 6.6-1.7 8.6 1.8 2.2 3.7.3 6.4-2.9 8.3-9.2 5.4-18.4 10.6-28.4 16.4 8.9 5.2 17.3 10 25.7 14.8 6.1 3.5 7.6 6.2 5.6 9.8-2.1 3.8-5.2 3.9-11.6.2-8.2-4.7-16.4-9.4-25.5-14.6 0 10.3-.1 19.8.1 29.3.1 3.8-.4 7.2-3 10.1-1.8-.1-3.8-.1-5.8-.1zm71.1-178.9v31c0 5.6-1.8 8.1-5.8 8.1s-5.9-2.6-5.9-8.1c0-8.8-.1-17.7.1-26.5.1-3.7-.7-4.5-4.1-2.5-7.8 4.7-15.8 9.2-23.7 13.8-2.8 1.6-5.6 2.2-8.3-.2-3.2-3-2.6-7 1.9-9.6 8.2-4.8 16.4-9.5 24.6-14.2 1.1-.6 2.5-1 3.1-2.6-8.8-5.1-17.5-10.1-26.3-15.2-4.6-2.7-6-5.9-4.2-9.2 1.8-3.4 5.4-3.7 10-1 8.7 5 17.5 10.1 27.1 15.6v-29.7c0-1.3-.1-2.7.1-4 .4-3.4 2.4-5.7 5.9-5.6 3.7.1 5.8 2.3 5.8 6.1v33.2c6.1-3.4 11.5-6.5 17-9.6 3.3-1.9 6.6-3.9 9.9-5.8 5.1-2.9 8.4-2.6 10.4.9 1.9 3.3.5 6.3-4.4 9.1-6.9 4-13.8 8-20.8 12-1.8 1.1-3.6 2.2-6.1 3.6 8.3 4.8 16 9.3 23.8 13.8 1.4.8 2.9 1.6 4.3 2.5 3.4 1.9 5 4.7 3 8.3-2.1 3.9-5.5 3.8-9 1.8-7.5-4.3-15-8.7-22.5-13-1.9-1-3.6-1.8-5.9-3zm-136.2-.2c-9.3 5.3-17.7 10.1-26 14.9-1 .6-2 1.3-3 1.7-3.3 1.4-6.4 1.3-8.2-2.2-1.8-3.4-.6-6.2 2.6-8 7.9-4.6 15.8-9.2 23.8-13.8 1.4-.8 2.8-1.7 4.7-2.9-9.3-5.4-18-10.4-26.8-15.5-1.9-1.1-3.9-2.1-4.7-4.3-.8-2.4-.4-4.7 1.6-6.4 2.1-1.8 4.5-2 6.9-.6 7.8 4.5 15.6 9 23.4 13.4 1.6.9 3.1 1.8 5.2 2.9 1-5.2.4-9.9.5-14.6.1-5.7 0-11.3 0-17 0-5 2.2-7.9 5.9-7.5 4.7.4 5.9 3.7 5.9 7.8 0 9.3 0 18.7-.1 28 0 .8.1 1.6.2 2.5 2 .7 3.2-.8 4.5-1.5 7.3-4.1 14.4-8.3 21.6-12.5 5.5-3.2 8.9-2.9 10.8.7 1.9 3.5.4 6.4-5.2 9.6-8.5 4.9-17 9.7-26.2 15 9.3 5.4 18.1 10.4 26.8 15.5 1.4.8 3 1.7 4 2.9 1.9 2.4 1.7 5.1-.2 7.3-2.2 2.5-5 2.5-7.7.9-8.2-4.7-16.4-9.5-24.7-14.2-1.1-.6-2.3-1.2-4.1-2.1v21.9c0 3.8-.4 7.6-.4 11.4.1 3.7-1.6 5.7-5.3 5.8-3.8 0-5.8-2.1-5.9-5.9v-24c.1-2.7.1-5.4.1-9.2zm181 92.8c-9.9-5.7-19-10.9-28-16.2-4.3-2.5-5.4-6.4-2.7-9.4 2.4-2.7 5.1-2.7 8.1-1 6.6 3.8 13.3 7.5 19.8 11.6 2.6 1.6 6.4.5 8.7 4v-16.1c0-5-.1-10 0-15s2.2-7.8 5.9-7.6c4.8.3 5.7 3.7 5.7 7.8-.1 9 .1 18-.1 27-.1 4.2 1 4.4 4.3 2.4 7.7-4.7 15.5-9.1 23.3-13.5 4.5-2.6 7.7-2.1 9.6 1.1 1.8 3.2.6 6.5-3.6 9-8.9 5.2-17.8 10.3-27.5 15.9 8.5 5 16.5 9.6 24.5 14.2 1.2.7 2.3 1.3 3.5 2 3.7 2 5.1 5.1 3 8.7-2.1 3.5-5.4 3.4-8.7 1.5-7.8-4.5-15.6-9-23.4-13.4-1.4-.8-2.6-2-5-2.1v32.8c-.2 3.5-1.8 5.7-5.5 5.7-3.9 0-5.9-2.1-5.9-5.9-.1-8.7-.1-17.3-.1-26v-6.8c-2.9.4-4.9 2.2-7.2 3.5-6.7 3.8-13.3 7.7-19.9 11.5-4.7 2.7-8.2 2.4-10.1-.9-2-3.4-.7-6.5 4-9.2 8.8-5 17.6-10 27.3-15.6zm-243.3-10.1v-32.1c0-2.6.2-5 2.7-6.5 1.9-1.1 3.7-1.3 5.7-.2 2.5 1.4 3.2 3.5 3.2 6.3-.1 10.5 0 21 0 31.4 1.9.8 2.9-.6 4.1-1.3 8-4.5 15.9-9.1 23.8-13.7 3.5-2 6.7-2.3 9.1 1.4 2.2 3.2.9 6.4-3.4 8.9-8.9 5.2-17.9 10.3-27.2 15.6 3.2 3.2 7.1 4.6 10.6 6.7 5.5 3.4 11.2 6.6 16.8 9.8 3.5 2 5.4 4.8 3.2 8.6s-5.6 3.6-9.1 1.6c-9.1-5.2-18.1-10.4-28.1-16.2v31.4c-.1 5.6-1.9 8.1-5.9 8-4-.1-5.6-2.4-5.6-8.2v-29.9c-1.7-1-2.6.3-3.7.9-7.8 4.4-15.6 8.9-23.4 13.4-4.7 2.7-8.3 2.4-10.1-.7-1.9-3.4-.4-6.7 4.5-9.5 7.5-4.3 15-8.6 22.5-13 1.3-.7 2.8-1.1 3.6-2.9-9.1-5.2-18.2-10.4-27.2-15.6-2.5-1.4-4.3-3.2-4.1-6.3.2-2.4 1.5-4 3.6-5 2.6-1.1 4.8.2 7 1.5 8.8 4.9 17.6 10 27.4 15.6z"/></svg>