<?xml version="1.0" encoding="utf-8"?>
<!-- Generator: Adobe Illustrator 15.0.0, SVG Export Plug-In . SVG Version: 6.00 Build 0)  -->
<!DOCTYPE svg PUBLIC "-//W3C//DTD SVG 1.1//EN" "http://www.w3.org/Graphics/SVG/1.1/DTD/svg11.dtd">
<svg version="1.1" id="Layer_1" xmlns="http://www.w3.org/2000/svg" xmlns:xlink="http://www.w3.org/1999/xlink" x="0px" y="0px"
	 width="113.39px" height="113.39px" viewBox="0 0 113.39 113.39" enable-background="new 0 0 113.39 113.39" xml:space="preserve">
<g>
	<g>
		<path fill="none" stroke="#EC2127" stroke-width="2.126" stroke-miterlimit="10" d="M37.727,25.729l-7.833-11.327
			c0,0-18.053,0-20.904,0c-2.848,0-6.052,1.777-6.052,5.697c0,3.918-0.426,74.309-0.419,74.782c0.021,1.422,0.684,4.293,5.759,4.561
			L83.833,99.5c0,0,4.776,1.007,6.908-5.046c2.138-6.056,19.592-53.424,19.592-53.424s3.03-6.696-2.667-6.696l-79.44-0.069
			c0,0-3.206-1.068-4.637,3.562L2.291,95.523"/>
		<polyline fill="none" stroke="#EC2127" stroke-width="2.126" stroke-miterlimit="10" points="103.782,33.277 103.833,25.333 
			14.335,25.44 14.686,61.645 		"/>
	</g>
</g>
</svg>
