<?xml version="1.0" encoding="utf-8"?>
<!-- Generator: Adobe Illustrator 16.0.0, SVG Export Plug-In . SVG Version: 6.00 Build 0)  -->
<!DOCTYPE svg PUBLIC "-//W3C//DTD SVG 1.1//EN" "http://www.w3.org/Graphics/SVG/1.1/DTD/svg11.dtd">
<svg version="1.1" id="Слой_1" xmlns="http://www.w3.org/2000/svg" xmlns:xlink="http://www.w3.org/1999/xlink" x="0px" y="0px"
	 width="512px" height="512px" viewBox="0 0 512 512" enable-background="new 0 0 512 512" xml:space="preserve">
<path fill="#F7793E" d="M103.441,499.912c-5.046,0.015-9.148-4.064-9.164-9.11c-0.001-0.537,0.045-1.074,0.138-1.604l28.327-165.128
	L2.768,207.139c-3.617-3.547-3.674-9.355-0.127-12.973c1.402-1.43,3.232-2.361,5.213-2.653l165.788-24.094l74.151-150.236
	c-2.202-4.535-0.311-9.996,4.225-12.198s9.997-0.31,12.198,4.225c1.222,2.517,1.222,5.456,0,7.973l74.142,150.236l165.797,24.094
	c5.017,0.749,8.476,5.422,7.727,10.438c-0.295,1.97-1.221,3.79-2.64,5.187L389.267,324.088l28.319,165.12
	c0.586,3.437-0.825,6.91-3.639,8.963c-2.818,2.068-6.573,2.339-9.659,0.696l-148.284-77.955l-148.302,77.955
	C106.387,499.553,104.925,499.911,103.441,499.912L103.441,499.912z M28.86,206.974l110.122,107.346
	c2.157,2.106,3.141,5.139,2.63,8.11l-26,151.564l136.132-71.557c2.669-1.412,5.863-1.412,8.532,0l136.112,71.557L370.397,322.43
	c-0.511-2.972,0.473-6.004,2.631-8.11L483.15,206.974l-152.179-22.114c-2.985-0.433-5.565-2.308-6.901-5.013L256.004,41.956
	l-68.065,137.9c-1.335,2.705-3.916,4.58-6.9,5.013L28.86,206.974z"/>
</svg>
