<svg xmlns="http://www.w3.org/2000/svg" viewBox="0 0 512 512"><g fill="#f7b239"><path d="M124.358 245.818l.013.013c-2.975 3.176-2.054 20.563-4.873 23.906-4.168 4.942-11.981-4.064-15.792 1.225a106.01 106.01 0 0 1-72.61-31.062A106.003 106.003 0 0 1 .009 164.905c0-5.677.459-11.404 1.378-17.094a106.111 106.111 0 0 1 92.114 29.684 106.175 106.175 0 0 1 30.857 68.323z"/><path d="M124.358 296.13A106.167 106.167 0 0 1 93.5 364.479a106.181 106.181 0 0 1-75.021 31.075c-5.677 0-11.391-.459-17.094-1.39a106.04 106.04 0 0 1 29.71-92.089 106.006 106.006 0 0 1 72.61-31.062c4.267 5.919 18.103.262 22.809 5.74 2.343 2.727-4.603 16.761-2.156 19.377zm212.458-161.012a105.976 105.976 0 0 1 23.37 35.348c-1.186-.242-33.486 56.766-34.672 56.537-15.32-2.883-26.227 17.859-42.096 17.859-18.522 0-10.46-77.432-28.179-73.528a105.95 105.95 0 0 1-11.915-48.806c0-5.677.459-11.404 1.39-17.094a106.087 106.087 0 0 1 92.102 29.684z"/></g><path d="M356.627 169.765v.013c-18.637 29.251-18.637 173.181 0 202.419a252.4 252.4 0 0 1-46.893 4.375 253.18 253.18 0 0 1-22.911-1.033c9.873-14.963-60.848-20.461-64.127-14.351a256.378 256.378 0 0 1-28.715-12.552 253.718 253.718 0 0 1-69.625-52.505 255.71 255.71 0 0 1-20.653-25.117c.804-.013 1.595-.026 2.398-.026-.804 0-1.595-.013-2.398-.026a254.025 254.025 0 0 1 20.665-25.13 253.664 253.664 0 0 1 130.868-74.498 253.232 253.232 0 0 1 54.496-5.932c15.871 0 31.574 1.48 46.895 4.363z" fill="#f95428"/><path d="M216.204 296.13a255.71 255.71 0 0 1-20.653-25.117c.804-.013 1.595-.026 2.398-.026-.804 0-1.595-.013-2.398-.026a254.025 254.025 0 0 1 20.665-25.13 253.664 253.664 0 0 1 130.868-74.498 252.428 252.428 0 0 1 8.642-1.727 253.624 253.624 0 0 0-45.993-4.205 253.176 253.176 0 0 0-54.496 5.932 253.66 253.66 0 0 0-130.868 74.498 254.025 254.025 0 0 0-20.665 25.13c.804.013 1.595.026 2.398.026-.804 0-1.595.013-2.398.026a255.332 255.332 0 0 0 20.653 25.117 253.664 253.664 0 0 0 69.625 52.505 256.298 256.298 0 0 0 28.715 12.552 71.648 71.648 0 0 1 12.489-16.787 72.12 72.12 0 0 1 20.17-14.202 253.233 253.233 0 0 1-39.152-34.068z" fill="#e54728"/><path d="M297.794 324.22a72.105 72.105 0 0 1-10.971 51.319h-.013a71.08 71.08 0 0 1-9.197 11.289 72.121 72.121 0 0 1-50.987 21.125c-3.865 0-7.743-.306-11.621-.944a72.1 72.1 0 0 1 7.692-45.821 71.648 71.648 0 0 1 12.489-16.787 72.121 72.121 0 0 1 50.987-21.125c3.865 0 7.743.306 11.621.944zm200.799-48.105a7.317 7.317 0 0 1-7.335-7.335 7.327 7.327 0 0 1 7.335-7.335h9.988c-22.77-28.702-51.192-51.766-83.07-68.119a253.957 253.957 0 0 0-65.326-22.86c-1.186-.242-2.373-.472-3.559-.702v.013c-18.637 29.251-29.429 63.961-29.429 101.21s10.792 71.972 29.429 101.21c61.448-11.545 117.028-45.515 155.373-96.081l-13.406-.001z" fill="#f7b239"/><path d="M403.443 232.195c21.431 0 38.792 17.374 38.792 38.792s-17.362 38.792-38.792 38.792c-21.418 0-38.78-17.374-38.78-38.792s17.362-38.792 38.78-38.792z" fill="#f2f2f2"/><circle cx="403.448" cy="270.984" r="9.567" fill="#333"/></svg>