<svg xmlns="http://www.w3.org/2000/svg" viewBox="0 0 512 512"><path d="M87.661 267.486a11.135 11.135 0 0 1-4.295 1.85 55.328 55.328 0 0 1-10.725 1.044c-26.587 0-52.981-18.768-65.53-47.915-14.243-33.071-6.527-69.915 18.345-87.607a11.135 11.135 0 0 1 4.295-1.85c29.948-5.912 62.014 13.798 76.256 46.871 14.242 33.07 6.528 69.914-18.346 87.607z" fill="#939b48"/><path d="M103.744 310.746c-1.435.618-2.928.91-4.397.91-4.312 0-8.415-2.52-10.228-6.731L45.873 204.497c-2.432-5.646.175-12.194 5.82-14.625 5.648-2.433 12.193.175 14.625 5.82l43.246 100.429c2.432 5.646-.175 12.194-5.82 14.625z" fill="#60682e"/><path d="M500.87 371.354c0 18.418-7.706 36.213-21.141 48.823a14.65 14.65 0 0 1-10.03 3.969H290.565a14.657 14.657 0 0 1-12.863-7.631c-5.343-9.783-8.166-20.871-8.166-32.066 0-22.768 11.291-43.395 29.649-55.642a66.959 66.959 0 0 1-1.715-15.144c0-36.921 30.037-66.958 66.956-66.958 33.802 0 61.834 25.177 66.328 57.763a67.758 67.758 0 0 1 3.159-.073c36.92 0 66.957 30.037 66.957 66.959z" fill="#d19b3f"/><path d="M496.652 52.262c-1.65 16.531-12.627 30.087-27.757 35.331l-46.077 295.32a152.94 152.94 0 0 1-12.004 40.043H90.279l40.349-117.224c20.926-60.8 77.488-101.37 140.81-100.931 7.552.051 15.185.671 22.689 1.842l42.825 6.68L387.461 73.94c-11.113-9.234-16.969-23.929-14.679-38.62 1.719-11.019 7.627-20.708 16.633-27.284 9.007-6.575 20.035-9.248 31.054-7.53a41.607 41.607 0 0 1 19.681 8.673 41.58 41.58 0 0 1 21.687-2.217c21.703 3.545 36.996 23.442 34.815 45.3z" fill="#98642e"/><path d="M372.782 35.322c1.719-11.019 7.627-20.708 16.633-27.284 9.007-6.575 20.035-9.248 31.054-7.53a41.607 41.607 0 0 1 19.681 8.673 41.58 41.58 0 0 1 21.687-2.217c21.703 3.543 36.995 23.441 34.816 45.299-1.65 16.531-12.627 30.087-27.757 35.331l-8.437 54.077-91.985-15.331 18.987-52.398c-11.113-9.234-16.97-23.929-14.679-38.62z" fill="#c6a871"/><path d="M329.157 289.825l-74.394 74.394a11.094 11.094 0 0 1-7.87 3.26 11.09 11.09 0 0 1-7.87-3.26c-4.346-4.346-4.346-11.394 0-15.741l74.394-74.395c4.346-4.346 11.394-4.346 15.742 0 4.347 4.346 4.345 11.395-.002 15.742zm-75.345-29.51c-4.348-4.346-11.394-4.345-15.742 0l-46.468 46.47c-4.346 4.346-4.346 11.394 0 15.741 2.173 2.174 5.022 3.26 7.87 3.26s5.698-1.087 7.87-3.26l46.468-46.47c4.348-4.347 4.348-11.394.002-15.741zm110.232 66.015c-4.345-4.346-11.394-4.346-15.741 0l-46.468 46.467c-4.346 4.346-4.346 11.394 0 15.742 2.174 2.173 5.022 3.26 7.87 3.26s5.698-1.087 7.87-3.26l46.467-46.468c4.349-4.346 4.349-11.394.002-15.741z" fill="#4f3324"/><path d="M200.348 384.054c0 13.987-5.852 27.501-16.056 37.078a11.129 11.129 0 0 1-7.617 3.014H40.635a11.13 11.13 0 0 1-9.768-5.796 50.933 50.933 0 0 1-6.202-24.351c0-17.291 8.575-32.955 22.517-42.256a50.879 50.879 0 0 1-1.302-11.501c0-28.039 22.811-50.85 50.849-50.85 25.67 0 46.958 19.12 50.372 43.867a51.735 51.735 0 0 1 2.399-.056c28.037 0 50.848 22.811 50.848 50.851z" fill="#e9b84c"/><path d="M512 422.957c0 6.147-4.838 11.13-10.807 11.13h-90.435l-43.878 72.544a11.13 11.13 0 0 1-9.524 5.369H154.644a11.133 11.133 0 0 1-9.524-5.369l-43.877-72.544H10.807C4.839 434.087 0 429.104 0 422.957c0-6.147 4.838-11.13 10.807-11.13h490.386c5.969 0 10.807 4.983 10.807 11.13z" fill="#5a482f"/><path d="M101.243 434.087h309.515l-43.878 72.544a11.13 11.13 0 0 1-9.524 5.369H154.644a11.133 11.133 0 0 1-9.524-5.369l-43.877-72.544z" fill="#7d684d"/><path d="M317.873 124.323c0 18.066-14.697 32.764-32.762 32.764h-86.143c-5.789 0-10.499 4.71-10.499 10.5v21.631c0 6.147-4.983 11.13-11.13 11.13-6.147 0-11.13-4.983-11.13-11.13v-21.631c0-18.065 14.697-32.761 32.76-32.761h86.143c5.79 0 10.502-4.712 10.502-10.503 0-5.79-4.71-10.5-10.502-10.5H132.938c-18.066 0-32.764-14.696-32.764-32.76s14.698-32.761 32.764-32.761h94.478c5.79 0 10.499-4.71 10.499-10.502 0-6.147 4.983-11.13 11.13-11.13 6.147 0 11.13 4.983 11.13 11.13 0 18.065-14.697 32.762-32.76 32.762h-94.478c-5.791 0-10.503 4.71-10.503 10.5s4.712 10.5 10.503 10.5h152.174c18.066 0 32.762 14.696 32.762 32.761z" fill="#ceb896"/></svg>