<svg xmlns="http://www.w3.org/2000/svg" viewBox="0 0 512.001 512.001" width="512" height="512"><g fill="#ed1d24"><path d="M400.45 36.739h-60.536a8 8 0 0 0-8 8v100.723a8 8 0 0 0 8 8h60.536a8 8 0 0 0 8-8V44.739a8 8 0 0 0-8-8zm-8 100.723h-44.536V52.739h44.536v84.723z"/><path d="M509.657 37.669l-23.1-23.1a7.997 7.997 0 0 0-5.657-2.344H18.82C8.443 12.226 0 20.669 0 31.046v449.909c0 10.377 8.443 18.819 18.82 18.819h474.362c10.377 0 18.819-8.443 18.819-18.819V43.326a8.006 8.006 0 0 0-2.344-5.657zm-286.004-9.443h195.88v133.748h-195.88V28.226zm-124.448 0h108.448v133.748H99.205V28.226zm-74.52 455.55h-5.866a2.823 2.823 0 0 1-2.82-2.819V31.046a2.823 2.823 0 0 1 2.82-2.82h5.866c-.14.923-.235 1.859-.235 2.82v449.909c0 .962.096 1.898.235 2.821zm412.562 0H99.205v-186.32h338.042v186.32zm0-202.32H99.205v-17.455h338.042v17.455zM496 480.957a2.823 2.823 0 0 1-2.819 2.819h-39.935V256.001a8 8 0 0 0-8-8H91.205a8 8 0 0 0-8 8v227.775H43.27a2.822 2.822 0 0 1-2.819-2.819V31.046a2.823 2.823 0 0 1 2.819-2.82h39.935v141.748a8 8 0 0 0 8 8h336.328a8 8 0 0 0 8-8V28.226h42.054L496 46.64v434.317z"/></g></svg>