<svg xmlns="http://www.w3.org/2000/svg" viewBox="0 0 612 612" width="512" height="512"><path d="M569.782 345.593v-2.663c0-12.677 10.313-22.991 22.991-22.991h10.151c-1.683-10.257-4.166-20.245-7.305-29.937H369.492c-.015 0-.027.003-.041.003l-.047-.003H154.27c-.015 0-.03.003-.044.003l-.044-.003H39.73c-8.169 0-14.793-6.621-14.793-14.793s6.624-14.793 14.793-14.793h88.283l-28.597-47.405H39.73c-8.169 0-14.793-6.621-14.793-14.793s6.624-14.793 14.793-14.793h476.386c-33.266-22.958-73.54-36.452-116.936-36.452H50.911C22.84 146.971 0 169.808 0 197.885v190.766c0 8.171 6.624 14.793 14.793 14.793h554.8c19.488 0 35.375-15.532 36.032-34.86H592.77c-12.675-.001-22.988-10.311-22.988-22.991zm-62.591 0c0 12.677-10.313 22.991-22.991 22.991h-21.725c-12.677 0-22.991-10.31-22.991-22.991v-2.663c0-12.677 10.313-22.991 22.991-22.991H484.2c12.677 0 22.991 10.313 22.991 22.991v2.663zm-80.108-85.18H377.4l-31.281-47.405h44.097l36.867 47.405zm156.358 0H464.558l-36.866-47.405h122.637c13.124 14.119 24.314 30.051 33.112 47.405zm-241.487 0H162.563l-28.597-47.405H310.67l31.284 47.405zM612 450.233c0 8.171-6.624 14.793-14.793 14.793H14.793C6.624 465.026 0 458.405 0 450.233c0-8.171 6.624-14.793 14.793-14.793h582.415c8.171 0 14.792 6.622 14.792 14.793z" fill="#ed1d24"/></svg>