<?xml version="1.0" encoding="utf-8"?>
<!-- Generator: Adobe Illustrator 15.0.0, SVG Export Plug-In . SVG Version: 6.00 Build 0)  -->
<!DOCTYPE svg PUBLIC "-//W3C//DTD SVG 1.1//EN" "http://www.w3.org/Graphics/SVG/1.1/DTD/svg11.dtd">
<svg xmlns="http://www.w3.org/2000/svg" xmlns:xlink="http://www.w3.org/1999/xlink" version="1.1" id="Layer_1" x="0px" y="0px" width="113.39px" height="113.39px" viewBox="0 0 113.39 113.39" enable-background="new 0 0 113.39 113.39" xml:space="preserve">
<g>
	<path fill="none" stroke="#EC2127" stroke-width="2.126" stroke-miterlimit="10" d="M77.485,25.75h6.616   c8.036,0,9.421,3.294,9.421,10.062v54.094c0,6.768-1.385,10.059-9.421,10.059H28.733c-8.036,0-8.692-3.291-8.692-10.059V35.812   c0-6.768,0.657-10.062,8.692-10.062h7.75"/>
	
		<line fill="none" stroke="#EC2127" stroke-width="2.126" stroke-miterlimit="10" x1="36.798" y1="56.883" x2="76.766" y2="56.883"/>
	<path fill="none" stroke="#EC2127" stroke-width="2.126" stroke-miterlimit="10" d="M41.48,31.616h30.601   c0.77,0,1.393-0.624,1.393-1.391V21.88c0-0.768-0.623-1.39-1.393-1.39h-7.43c-1.161-3.283-4.308-5.564-7.872-5.564   c-3.561,0-6.706,2.282-7.866,5.564H41.48c-0.769,0-1.389,0.623-1.389,1.39v8.344C40.091,30.993,40.711,31.616,41.48,31.616z"/>
	
		<line fill="none" stroke="#EC2127" stroke-width="2.126" stroke-miterlimit="10" x1="36.798" y1="69.573" x2="76.766" y2="69.573"/>
	
		<line fill="none" stroke="#EC2127" stroke-width="2.126" stroke-miterlimit="10" x1="36.798" y1="44.194" x2="76.766" y2="44.194"/>
	
		<line fill="none" stroke="#EC2127" stroke-width="2.126" stroke-miterlimit="10" x1="37.069" y1="82.263" x2="58.731" y2="82.263"/>
</g>
</svg>
