<?xml version="1.0" encoding="utf-8"?>
<!-- Generator: Adobe Illustrator 15.0.0, SVG Export Plug-In . SVG Version: 6.00 Build 0)  -->
<!DOCTYPE svg PUBLIC "-//W3C//DTD SVG 1.1//EN" "http://www.w3.org/Graphics/SVG/1.1/DTD/svg11.dtd">
<svg version="1.1" id="Layer_1" xmlns="http://www.w3.org/2000/svg" xmlns:xlink="http://www.w3.org/1999/xlink" x="0px" y="0px"
	 width="113.39px" height="113.39px" viewBox="0 0 113.39 113.39" enable-background="new 0 0 113.39 113.39" xml:space="preserve">
<path fill="none" stroke="#EC2227" stroke-width="2.126" stroke-miterlimit="10" d="M82.921,77.752
	c0.416-2.939,5.436-41.865-19.963-46.286c-0.012-12.268-0.236-16.854-5.632-16.47c-5.488,0.391-4.781,12.771-4.626,16.772
	c-26.983,3.703-21.43,40.589-20.612,45.973c-1.115,1.26-10.912,12.768,1.83,13.422c0.859,0.045,6.193,0.093,13.073,0.106
	c0.383,2.589,3.908,8.93,10.722,8.739c6.937-0.191,9.585-6.437,9.981-8.813c7.955-0.086,14.523-0.253,15.83-0.553
	C87.245,89.8,91.95,86.634,82.921,77.752z"/>
</svg>
