<svg xmlns="http://www.w3.org/2000/svg" width="512" height="512" viewBox="0 0 600.759 600.759"><g fill="#ed1d24"><path d="M203.993 295.287c21.001 0 38.024 17.023 38.024 38.018s-17.023 38.024-38.024 38.024c-20.998 0-38.021-17.029-38.021-38.024s17.023-38.018 38.021-38.018z"/><path d="M574.267 325.822l25.782-203.262-184.936-70.182-221.834 105.959L0 76.71l26.099 216.848L1.085 507.093l205.36 38.521 209.46-39.892 184.854 42.658-26.492-222.558zM414.428 73.909l163.811 61.731-11.277 88.88-163.273-41.301 10.739-109.31zm-21.669 11.283l-8.642 93.06-.142-.033L270.929 192.8l-.677 2.494c-.142.538-13.258 48.995-27.08 71.033-8.946-5.261-19.006-8.784-29.755-10.09l-9.164-81.028 188.506-90.017zm-17.283 207.574l-98.251 14.815c-5.291-14.969-14.999-27.825-27.606-37.022 12.862-20.531 24.471-60.278 27.394-70.77l106.361-13.728-7.898 106.705zM184.269 176.197l9.079 80.236c-29.864 4.113-54.358 25.2-63.336 53.217l-83.779-12.968-8.045-77.706c27.769-1.838 48.599-10.875 61.948-27 12.034-14.514 15.495-31.685 16.157-44.484l67.976 28.705zM24.187 108.596l84.465 35.668c-.242 11.777-2.905 28.865-14.443 42.791-12.037 14.514-31.182 22.632-56.998 24.261l-13.024-102.72zm-1.09 382.325l20.779-174.402 82.626 12.803c-.062 1.324-.195 2.636-.195 3.989 0 18.164 6.307 34.856 16.807 48.108l-42.912 34.459-13.521 86.959-63.584-11.916zm161.878 30.358l-90.721-17.017 13.104-84.252 40.837-32.781c12.528 12.95 29.48 21.593 48.421 23.377l-11.641 110.673zm-43.246-187.968c0-34.348 27.935-62.281 62.264-62.281 34.347 0 62.282 27.934 62.282 62.281 0 34.33-27.935 62.265-62.282 62.265-34.33.006-62.264-27.935-62.264-62.265zm64.69 191.987l-1.75-.33 12.12-115.119c36.756-6.135 64.9-38.076 64.9-76.556 0-2.081-.15-4.114-.313-6.159l96.038-14.481 8.016 81.911c-42.132 1.98-73.625 14.932-93.449 38.857-23.114 27.923-24.205 62.737-23.008 79.949l-62.554 11.928zm70.247-13.381c-.931-16.337.419-48.397 21.264-73.565 18.438-22.26 48.182-34.271 88.244-36.091l8.535 87.154-118.043 22.502zm126.307-320.946l163.03 41.225-9.776 77.017-160.974-19.431 7.72-98.811zm131.083 184.774l-74.175-8.819 13.584 131.58-59.428-12.773-16.852-176.034 1.732-.272 155.612 19.754 23.022 193.354-96.298-22.213-12.714-124.599 66.111 7.672-.594-7.65z"/></g></svg>