<svg xmlns="http://www.w3.org/2000/svg" viewBox="0 0 512 512" width="512" height="512"><path d="M460.83 158.096l-107.946-3.652a13.934 13.934 0 0 1-12.785-9.695L306.386 38.602c-15.511-48.855-84.282-49.179-100.507-.837l-36.028 107.207c-1.839 5.469-6.946 9.275-12.713 9.473l-106.019 3.658C1.105 159.83-18.694 223.63 21.44 253.404l51.897 38.423v49.325c0 13.331 5.134 25.453 13.655 34.437-31.905 73.115-30.242 68.872-30.744 71.466-9.549 49.43 48.725 82.311 85.853 50.555l105.232-68.974a13.88 13.88 0 0 1 7.626-2.273c2.681 0 5.291.767 7.541 2.215L370.123 497.9c38.169 31.832 96.189-2.159 85.312-52.271-.54-2.482 1.575 2.541-30.597-68.093 9.667-9.138 15.718-22.064 15.718-36.386v-51.496l49.523-35.903c40.779-29.565 21.014-93.949-29.249-95.655zm-69.743 313.797c-1.358-1.185 5.642 3.424-110.509-71.394a47.235 47.235 0 0 0-25.62-7.532 47.183 47.183 0 0 0-25.931 7.738c-113.528 74.411-106.839 69.915-108.245 71.185-12.892 11.641-34.116.588-31.995-16.919l28.002-64.169c2.139.279 4.316.44 6.528.44h33.394c38.946 0 71.742-26.808 80.919-62.94a50.145 50.145 0 0 1 38.522 0c9.178 36.131 41.973 62.94 80.919 62.94h33.394c1.296 0 2.575-.066 3.846-.163l28.78 63.186c2.819 18.156-18.364 29.54-32.004 17.628zM106.62 341.15v-66.787c0-9.207 7.49-16.697 16.697-16.697h66.787c9.207 0 16.808 7.49 16.808 16.697v33.394c0 27.62-22.582 50.202-50.202 50.202h-33.394c-9.206-.001-16.696-7.602-16.696-16.809zm130.702-83.484h39.137c-1.853 5.226-2.76 10.844-2.76 16.697v18.379a84.853 84.853 0 0 0-16.808-1.682c-5.633 0-11.227.569-16.697 1.682v-18.379a49.836 49.836 0 0 0-2.872-16.697zm69.659 50.091v-33.394c0-9.207 7.49-16.697 16.697-16.697h66.787c9.207 0 16.808 7.49 16.808 16.697v66.787c0 9.207-7.602 16.808-16.808 16.808h-33.394c-27.619 0-50.09-22.582-50.09-50.201zm163.496-81.042l-35.121 25.461c-8.197-16.518-25.237-27.792-44.892-27.792H123.316c-20.215 0-37.659 11.933-45.567 29.216l-36.413-27.016c-14.821-10.995-7.548-34.47 10.933-35.109l106.015-3.658c19.6-.672 36.968-13.613 43.219-32.207l36.032-107.214c5.996-17.862 31.293-17.737 37.023.313l33.714 106.147c6.049 19.043 23.526 32.289 43.486 32.961l107.94 3.652c18.585.632 25.842 24.325 10.779 35.246z" fill="#ed1d24"/></svg>