<svg xmlns="http://www.w3.org/2000/svg" viewBox="0 0 64 64" width="512" height="512"><g fill="#ed1d24"><path d="M45.002 38.99a3.543 3.543 0 0 0-2.102-1.732 3.54 3.54 0 0 0-2.712.263 2.868 2.868 0 0 1-3.883-1.187l-4.5-8.46a2.888 2.888 0 0 1-.213-2.218 2.892 2.892 0 0 1 1.418-1.718 3.526 3.526 0 0 0 1.455-4.761l-1.6-3.01a3.413 3.413 0 0 0-2.027-1.67 3.41 3.41 0 0 0-2.612.251l-.86.455a8.226 8.226 0 0 0-3.556 3.742 9.134 9.134 0 0 0 .204 8.124l8.578 16.13a9.155 9.155 0 0 0 6.641 4.723 8.188 8.188 0 0 0 5.065-.854l.868-.46a3.407 3.407 0 0 0 1.67-2.028 3.4 3.4 0 0 0-.252-2.612l-1.582-2.978zm-.078 5.006c-.112.365-.36.666-.695.844l-.869.463a6.156 6.156 0 0 1-3.82.642 7.143 7.143 0 0 1-5.183-3.685L25.78 26.13a7.124 7.124 0 0 1-.159-6.336 6.216 6.216 0 0 1 2.685-2.824l.86-.455a1.409 1.409 0 0 1 1.088-.106c.365.112.666.36.845.696l1.601 3.011c.393.74.11 1.662-.63 2.056a4.875 4.875 0 0 0-2.39 2.9 4.877 4.877 0 0 0 .361 3.74l4.5 8.463a4.852 4.852 0 0 0 2.877 2.37 4.85 4.85 0 0 0 3.712-.36 1.559 1.559 0 0 1 2.107.645l1.582 2.975v.001c.18.337.217.725.106 1.09z"/><path d="M52.807 0H15.693c-3.002 0-5.443 2.48-5.443 5.53V19h-3.5a1 1 0 1 0 0 2h3.5v21h-3.5a1 1 0 1 0 0 2h3.5v14.47c0 3.05 2.441 5.53 5.443 5.53h37.114c3.002 0 5.443-2.48 5.443-5.53V5.53c0-3.05-2.441-5.53-5.443-5.53zm3.443 58.47c0 1.947-1.545 3.53-3.443 3.53H15.693c-1.898 0-3.443-1.583-3.443-3.53V44h3.5a1 1 0 1 0 0-2h-3.5V21h3.5a1 1 0 1 0 0-2h-3.5V5.53c0-1.947 1.545-3.53 3.443-3.53h37.114c1.898 0 3.443 1.583 3.443 3.53v52.94z"/></g></svg>