<svg xmlns="http://www.w3.org/2000/svg" viewBox="0 0 324.923 324.923" width="512" height="512"><path d="M303.265 34.091l-7.897-8.023C281.351 11.825 262.685 3.982 242.81 3.982c-19.994 0-38.803 7.922-52.938 22.284L15.652 201.363c-20.814 21.146-20.878 55.492-.142 76.564l5.46 5.547c10.363 10.529 24.877 16.568 39.818 16.568 14.308 0 27.526-5.425 37.22-15.272L254.42 125.848c12.181-12.378 12.214-32.48.075-44.812l-2.915-2.964c-5.896-5.99-13.749-9.288-22.112-9.287-8.406 0-16.31 3.328-22.255 9.369L62.641 225.046a6.001 6.001 0 0 0 8.552 8.418L215.766 86.572c3.672-3.731 8.538-5.787 13.702-5.787 5.123-.001 9.938 2.025 13.559 5.703l2.914 2.964c7.571 7.691 7.538 20.243-.074 27.978L89.456 276.352c-7.42 7.538-17.601 11.69-28.667 11.69-11.747 0-23.143-4.733-31.266-12.986l-5.46-5.547c-16.168-16.429-16.104-43.223.118-59.704l174.22-175.098c11.885-12.076 27.655-18.726 44.408-18.726 16.634 0 32.262 6.571 44.006 18.504l7.897 8.024c24.393 24.784 24.298 65.209-.211 90.111l-175.3 178.112a6.001 6.001 0 0 0 8.552 8.418l175.3-178.112c29.078-29.545 29.172-77.52.212-106.947z" fill="#ed1d24"/></svg>