<svg xmlns="http://www.w3.org/2000/svg" viewBox="0 0 512 512" width="512" height="512"><path d="M503.467 460.8H8.533c-5.12 0-8.533 3.413-8.533 8.533v34.133c0 5.12 3.413 8.533 8.533 8.533h494.933c5.12 0 8.533-3.413 8.533-8.533v-34.133c.001-5.12-3.412-8.533-8.532-8.533zm-8.534 34.133H17.067v-17.067h477.867v17.067zM42.667 59.733h42.667c5.12 0 8.533-3.413 8.533-8.533V8.533c0-5.12-3.413-8.533-8.533-8.533H42.667c-5.12 0-8.533 3.413-8.533 8.533V51.2c-.001 5.12 3.413 8.533 8.533 8.533zM51.2 17.067h25.6v25.6H51.2v-25.6zm68.267 42.666h42.667c5.12 0 8.533-3.413 8.533-8.533V8.533c0-5.12-3.413-8.533-8.533-8.533h-42.667c-5.12 0-8.533 3.413-8.533 8.533V51.2c-.001 5.12 3.413 8.533 8.533 8.533zM128 17.067h25.6v25.6H128v-25.6zm68.267 42.666h42.667c5.12 0 8.533-3.413 8.533-8.533V8.533c0-5.12-3.413-8.533-8.533-8.533h-42.667c-5.12 0-8.533 3.413-8.533 8.533V51.2c-.001 5.12 3.413 8.533 8.533 8.533zm8.533-42.666h25.6v25.6h-25.6v-25.6zm68.267 42.666h42.667c5.12 0 8.533-3.413 8.533-8.533V8.533c0-5.12-3.413-8.533-8.533-8.533h-42.667c-5.12 0-8.533 3.413-8.533 8.533V51.2c-.001 5.12 3.413 8.533 8.533 8.533zm8.533-42.666h25.6v25.6h-25.6v-25.6zm68.267 42.666h42.667c5.12 0 8.533-3.413 8.533-8.533V8.533c0-5.12-3.413-8.533-8.533-8.533h-42.667c-5.12 0-8.533 3.413-8.533 8.533V51.2c-.001 5.12 3.413 8.533 8.533 8.533zm8.533-42.666H384v25.6h-25.6v-25.6zm68.267 42.666h42.667c5.12 0 8.533-3.413 8.533-8.533V8.533c0-5.12-3.413-8.533-8.533-8.533h-42.667c-5.12 0-8.533 3.413-8.533 8.533V51.2c-.001 5.12 3.413 8.533 8.533 8.533zm8.533-42.666h25.6v25.6h-25.6v-25.6zM42.667 136.533h42.667c5.12 0 8.533-3.413 8.533-8.533V85.333c0-5.12-3.413-8.533-8.533-8.533H42.667c-5.12 0-8.533 3.413-8.533 8.533V128c-.001 5.12 3.413 8.533 8.533 8.533zM51.2 93.867h25.6v25.6H51.2v-25.6zm68.267 42.666h42.667c5.12 0 8.533-3.413 8.533-8.533V85.333c0-5.12-3.413-8.533-8.533-8.533h-42.667c-5.12 0-8.533 3.413-8.533 8.533V128c-.001 5.12 3.413 8.533 8.533 8.533zM128 93.867h25.6v25.6H128v-25.6zm68.267 42.666h42.667c5.12 0 8.533-3.413 8.533-8.533V85.333c0-5.12-3.413-8.533-8.533-8.533h-42.667c-5.12 0-8.533 3.413-8.533 8.533V128c-.001 5.12 3.413 8.533 8.533 8.533zm8.533-42.666h25.6v25.6h-25.6v-25.6zm68.267 42.666h42.667c5.12 0 8.533-3.413 8.533-8.533V85.333c0-5.12-3.413-8.533-8.533-8.533h-42.667c-5.12 0-8.533 3.413-8.533 8.533V128c-.001 5.12 3.413 8.533 8.533 8.533zm8.533-42.666h25.6v25.6h-25.6v-25.6zm68.267 42.666h42.667c5.12 0 8.533-3.413 8.533-8.533V85.333c0-5.12-3.413-8.533-8.533-8.533h-42.667c-5.12 0-8.533 3.413-8.533 8.533V128c-.001 5.12 3.413 8.533 8.533 8.533zm8.533-42.666H384v25.6h-25.6v-25.6zm68.267 42.666h42.667c5.12 0 8.533-3.413 8.533-8.533V85.333c0-5.12-3.413-8.533-8.533-8.533h-42.667c-5.12 0-8.533 3.413-8.533 8.533V128c-.001 5.12 3.413 8.533 8.533 8.533zm8.533-42.666h25.6v25.6h-25.6v-25.6zM42.667 366.933h42.667c5.12 0 8.533-3.413 8.533-8.533v-42.667c0-5.12-3.413-8.533-8.533-8.533H42.667c-5.12 0-8.533 3.413-8.533 8.533V358.4c-.001 5.12 3.413 8.533 8.533 8.533zm8.533-42.666h25.6v25.6H51.2v-25.6zm68.267 42.666h42.667c5.12 0 8.533-3.413 8.533-8.533v-42.667c0-5.12-3.413-8.533-8.533-8.533h-42.667c-5.12 0-8.533 3.413-8.533 8.533V358.4c-.001 5.12 3.413 8.533 8.533 8.533zM128 324.267h25.6v25.6H128v-25.6zm68.267 42.666h42.667c5.12 0 8.533-3.413 8.533-8.533v-42.667c0-5.12-3.413-8.533-8.533-8.533h-42.667c-5.12 0-8.533 3.413-8.533 8.533V358.4c-.001 5.12 3.413 8.533 8.533 8.533zm8.533-42.666h25.6v25.6h-25.6v-25.6zm68.267 42.666h42.667c5.12 0 8.533-3.413 8.533-8.533v-42.667c0-5.12-3.413-8.533-8.533-8.533h-42.667c-5.12 0-8.533 3.413-8.533 8.533V358.4c-.001 5.12 3.413 8.533 8.533 8.533zm8.533-42.666h25.6v25.6h-25.6v-25.6zm68.267 42.666h42.667c5.12 0 8.533-3.413 8.533-8.533v-42.667c0-5.12-3.413-8.533-8.533-8.533h-42.667c-5.12 0-8.533 3.413-8.533 8.533V358.4c-.001 5.12 3.413 8.533 8.533 8.533zm8.533-42.666H384v25.6h-25.6v-25.6zm68.267 42.666h42.667c5.12 0 8.533-3.413 8.533-8.533v-42.667c0-5.12-3.413-8.533-8.533-8.533h-42.667c-5.12 0-8.533 3.413-8.533 8.533V358.4c-.001 5.12 3.413 8.533 8.533 8.533zm8.533-42.666h25.6v25.6h-25.6v-25.6zM42.667 443.733h42.667c5.12 0 8.533-3.413 8.533-8.533v-42.667c0-5.12-3.413-8.533-8.533-8.533H42.667c-5.12 0-8.533 3.413-8.533 8.533V435.2c-.001 5.12 3.413 8.533 8.533 8.533zm8.533-42.666h25.6v25.6H51.2v-25.6zm68.267 42.666h42.667c5.12 0 8.533-3.413 8.533-8.533v-42.667c0-5.12-3.413-8.533-8.533-8.533h-42.667c-5.12 0-8.533 3.413-8.533 8.533V435.2c-.001 5.12 3.413 8.533 8.533 8.533zM128 401.067h25.6v25.6H128v-25.6zm68.267 42.666h42.667c5.12 0 8.533-3.413 8.533-8.533v-42.667c0-5.12-3.413-8.533-8.533-8.533h-42.667c-5.12 0-8.533 3.413-8.533 8.533V435.2c-.001 5.12 3.413 8.533 8.533 8.533zm8.533-42.666h25.6v25.6h-25.6v-25.6zm68.267 42.666h42.667c5.12 0 8.533-3.413 8.533-8.533v-42.667c0-5.12-3.413-8.533-8.533-8.533h-42.667c-5.12 0-8.533 3.413-8.533 8.533V435.2c-.001 5.12 3.413 8.533 8.533 8.533zm8.533-42.666h25.6v25.6h-25.6v-25.6zm68.267 42.666h42.667c5.12 0 8.533-3.413 8.533-8.533v-42.667c0-5.12-3.413-8.533-8.533-8.533h-42.667c-5.12 0-8.533 3.413-8.533 8.533V435.2c-.001 5.12 3.413 8.533 8.533 8.533zm8.533-42.666H384v25.6h-25.6v-25.6zm68.267 42.666h42.667c5.12 0 8.533-3.413 8.533-8.533v-42.667c0-5.12-3.413-8.533-8.533-8.533h-42.667c-5.12 0-8.533 3.413-8.533 8.533V435.2c-.001 5.12 3.413 8.533 8.533 8.533zm8.533-42.666h25.6v25.6h-25.6v-25.6zM119.467 213.333h42.667c5.12 0 8.533-3.413 8.533-8.533v-42.667c0-5.12-3.413-8.533-8.533-8.533h-42.667c-5.12 0-8.533 3.413-8.533 8.533V204.8c-.001 5.12 3.413 8.533 8.533 8.533zM128 170.667h25.6v25.6H128v-25.6zm68.267 42.666h42.667c5.12 0 8.533-3.413 8.533-8.533v-42.667c0-5.12-3.413-8.533-8.533-8.533h-42.667c-5.12 0-8.533 3.413-8.533 8.533V204.8c-.001 5.12 3.413 8.533 8.533 8.533zm8.533-42.666h25.6v25.6h-25.6v-25.6zm68.267 42.666h42.667c5.12 0 8.533-3.413 8.533-8.533v-42.667c0-5.12-3.413-8.533-8.533-8.533h-42.667c-5.12 0-8.533 3.413-8.533 8.533V204.8c-.001 5.12 3.413 8.533 8.533 8.533zm8.533-42.666h25.6v25.6h-25.6v-25.6zm68.267 42.666h42.667c5.12 0 8.533-3.413 8.533-8.533v-42.667c0-5.12-3.413-8.533-8.533-8.533h-42.667c-5.12 0-8.533 3.413-8.533 8.533V204.8c-.001 5.12 3.413 8.533 8.533 8.533zm8.533-42.666H384v25.6h-25.6v-25.6zM119.467 290.133h42.667c5.12 0 8.533-3.413 8.533-8.533v-42.667c0-5.12-3.413-8.533-8.533-8.533h-42.667c-5.12 0-8.533 3.413-8.533 8.533V281.6c-.001 5.12 3.413 8.533 8.533 8.533zM128 247.467h25.6v25.6H128v-25.6zm68.267 42.666h42.667c5.12 0 8.533-3.413 8.533-8.533v-42.667c0-5.12-3.413-8.533-8.533-8.533h-42.667c-5.12 0-8.533 3.413-8.533 8.533V281.6c-.001 5.12 3.413 8.533 8.533 8.533zm8.533-42.666h25.6v25.6h-25.6v-25.6zm68.267 42.666h42.667c5.12 0 8.533-3.413 8.533-8.533v-42.667c0-5.12-3.413-8.533-8.533-8.533h-42.667c-5.12 0-8.533 3.413-8.533 8.533V281.6c-.001 5.12 3.413 8.533 8.533 8.533zm8.533-42.666h25.6v25.6h-25.6v-25.6zm68.267 42.666h42.667c5.12 0 8.533-3.413 8.533-8.533v-42.667c0-5.12-3.413-8.533-8.533-8.533h-42.667c-5.12 0-8.533 3.413-8.533 8.533V281.6c-.001 5.12 3.413 8.533 8.533 8.533zm8.533-42.666H384v25.6h-25.6v-25.6z" fill="#ed1d24"/></svg>