<svg xmlns="http://www.w3.org/2000/svg" viewBox="0 0 512 512" width="512" height="512"><path d="M420.8 137.6a15.91 15.91 0 0 0 1.511-16.755C419.583 115.389 414.1 112 408 112H168V93.255a23.847 23.847 0 0 1 7.029-16.971l22.627-22.627c.343-.343.642-.713.91-1.098A27.834 27.834 0 0 0 212 56c15.439 0 28-12.561 28-28S227.439 0 212 0s-28 12.561-28 28c0 4.865 1.249 9.443 3.441 13.434a7.961 7.961 0 0 0-1.098.91l-22.627 22.627C156.161 72.525 152 82.57 152 93.255V112h-48c-6.1 0-11.583 3.389-14.311 8.845-2.728 5.456-2.148 11.876 1.511 16.755l60.8 81.066V464h-8c-13.233 0-24 10.766-24 24v16a8 8 0 0 0 8 8h256a8 8 0 0 0 8-8v-16c0-13.234-10.767-24-24-24h-8V218.667l60.8-81.067zM212 16c6.617 0 12 5.383 12 12s-5.383 12-12 12-12-5.383-12-12 5.383-12 12-12zm124 448a8 8 0 0 0 0 16h32c4.411 0 8 3.589 8 8v8H136v-8c0-4.411 3.589-8 8-8h159.999a8 8 0 0 0 0-16H168V176h136a8 8 0 0 0 0-16H160a8 8 0 0 0-8 8v24l-48-64h304l-48 64v-24a8 8 0 0 0-8-8h-16.005a8 8 0 0 0 0 16H344v288h-8z" fill="#ed1c24"/></svg>