<?xml version="1.0" encoding="utf-8"?>
<!-- Generator: Adobe Illustrator 15.0.0, SVG Export Plug-In . SVG Version: 6.00 Build 0)  -->
<!DOCTYPE svg PUBLIC "-//W3C//DTD SVG 1.1//EN" "http://www.w3.org/Graphics/SVG/1.1/DTD/svg11.dtd">
<svg version="1.1" id="Layer_1" xmlns="http://www.w3.org/2000/svg" xmlns:xlink="http://www.w3.org/1999/xlink" x="0px" y="0px"
	 width="113.39px" height="113.39px" viewBox="0 0 113.39 113.39" enable-background="new 0 0 113.39 113.39" xml:space="preserve">
<g id="Клуб_друзей_1_">
	<g>
		<circle fill="none" stroke="#EC2127" stroke-width="2.126" stroke-miterlimit="10" cx="79.493" cy="29.54" r="17.696"/>
		<path fill="none" stroke="#EC2127" stroke-width="2.126" stroke-miterlimit="10" d="M48.263,90.954
			c0,0,34.353,13.014,61.418-1.042c0,0,6.071-29.029-10.929-37.993c-14.449-7.619-34.756-4.457-41.643,2.082
			c-4.081,3.877-8.077,8.303-8.847,18.215C47.062,87.719,48.263,90.954,48.263,90.954z"/>
	</g>
	<g>
		<circle fill="none" stroke="#EC2127" stroke-width="2.126" stroke-miterlimit="10" cx="34.21" cy="29.101" r="17.697"/>
		<path fill="none" stroke="#EC2127" stroke-width="2.126" stroke-miterlimit="10" d="M56.591,51.919c0,0-17.031-8.931-39.558-2.083
			c0,0-13.013,4.688-14.055,19.257v20.818c0,0,9.372,9.37,46.326,4.688c0,0-2.592-12.105-0.159-24.771
			C49.145,69.828,52.019,56.409,56.591,51.919z"/>
	</g>
</g>
</svg>
