<?xml version="1.0" encoding="utf-8"?>
<!-- Generator: Adobe Illustrator 15.0.0, SVG Export Plug-In . SVG Version: 6.00 Build 0)  -->
<!DOCTYPE svg PUBLIC "-//W3C//DTD SVG 1.1//EN" "http://www.w3.org/Graphics/SVG/1.1/DTD/svg11.dtd">
<svg version="1.1" id="Layer_1" xmlns="http://www.w3.org/2000/svg" xmlns:xlink="http://www.w3.org/1999/xlink" x="0px" y="0px"
	 width="113.39px" height="113.39px" viewBox="0 0 113.39 113.39" enable-background="new 0 0 113.39 113.39" xml:space="preserve">
<g>
	<path fill-rule="evenodd" clip-rule="evenodd" fill="none" stroke="#EC2127" stroke-width="2.126" stroke-miterlimit="10" d="
		M70.747,64.32V27.262c0,0,0-12.337-14.24-12.337c-14.268,0-14.268,12.337-14.268,12.337V64.32c0,0,0,12.332,14.268,12.332
		C70.747,76.652,70.747,64.32,70.747,64.32L70.747,64.32z M46.999,65.387"/>
	<path fill-rule="evenodd" clip-rule="evenodd" fill="none" stroke="#EC2127" stroke-width="2.126" stroke-miterlimit="10" d="
		M32.687,51.984V69.82c0,0,0,15.73,23.827,15.73c23.785,0,23.785-15.73,23.785-15.73l0,0V51.984 M40.638,71.181"/>
	
		<line fill="none" stroke="#EC2127" stroke-width="2.126" stroke-miterlimit="10" x1="56.493" y1="85.174" x2="56.493" y2="99.965"/>
	
		<line fill="none" stroke="#EC2127" stroke-width="2.126" stroke-miterlimit="10" x1="32.975" y1="99.193" x2="80.011" y2="99.264"/>
</g>
</svg>
